<svg width="40" height="40" viewBox="0 0 40 40" fill="none" xmlns="http://www.w3.org/2000/svg">
<g clip-path="url(#clip0_90_440)">
<path d="M32.5 7.49996C31.3945 7.50334 30.3214 7.87331 29.4488 8.55191C28.5761 9.23051 27.9532 10.1794 27.6776 11.25H22.4131C22.18 9.39387 21.4306 7.64045 20.2503 6.18913C19.07 4.73781 17.5062 3.64683 15.7366 3.04027C13.9669 2.43371 12.0626 2.33592 10.2402 2.75802C8.41776 3.18011 6.75035 4.10516 5.4276 5.42794C4.10484 6.75072 3.17984 8.41816 2.75778 10.2406C2.33573 12.063 2.43356 13.9674 3.04016 15.7369C3.64676 17.5065 4.73777 19.0704 6.18912 20.2507C7.64047 21.4309 9.3939 22.1802 11.25 22.4133V27.6776C10.0717 27.9818 9.04476 28.7054 8.36175 29.7126C7.67873 30.7198 7.38651 31.9416 7.53985 33.1488C7.69319 34.3561 8.28158 35.466 9.19471 36.2705C10.1078 37.075 11.283 37.5188 12.5 37.5188C13.717 37.5188 14.8922 37.075 15.8053 36.2705C16.7184 35.466 17.3068 34.3561 17.4601 33.1488C17.6135 31.9416 17.3213 30.7198 16.6383 29.7126C15.9552 28.7054 14.9283 27.9818 13.75 27.6776V22.4133C15.5267 22.1899 17.21 21.4906 18.622 20.3893L23.2086 24.9768C22.7496 25.7388 22.5048 26.6105 22.5 27.5C22.5 28.4889 22.7932 29.4556 23.3427 30.2778C23.8921 31.1001 24.673 31.7409 25.5866 32.1194C26.5002 32.4978 27.5055 32.5968 28.4755 32.4039C29.4454 32.211 30.3363 31.7348 31.0355 31.0355C31.7348 30.3362 32.211 29.4453 32.4039 28.4754C32.5969 27.5055 32.4978 26.5002 32.1194 25.5865C31.741 24.6729 31.1001 23.892 30.2778 23.3426C29.4556 22.7932 28.4889 22.5 27.5 22.5C26.6103 22.5046 25.7383 22.7494 24.9762 23.2086L20.3895 18.6218C21.4907 17.2099 22.1899 15.5266 22.4131 13.75H27.6776C27.9129 14.6533 28.3968 15.4726 29.0744 16.1148C29.752 16.7569 30.596 17.1962 31.5107 17.3828C32.4254 17.5693 33.3741 17.4956 34.249 17.1701C35.1239 16.8445 35.89 16.2801 36.4603 15.5411C37.0305 14.802 37.3821 13.9178 37.4751 12.9889C37.5681 12.06 37.3987 11.1237 36.9863 10.2862C36.5738 9.44875 35.9348 8.74373 35.1418 8.25122C34.3488 7.7587 33.4335 7.49843 32.5 7.49996ZM15 32.5C15 32.9944 14.8534 33.4778 14.5787 33.8889C14.304 34.3 13.9135 34.6204 13.4567 34.8097C12.9999 34.9989 12.4972 35.0484 12.0123 34.9519C11.5273 34.8555 11.0819 34.6174 10.7322 34.2677C10.3826 33.9181 10.1445 33.4726 10.048 32.9877C9.95157 32.5027 10.0011 32.0001 10.1903 31.5433C10.3795 31.0864 10.7 30.696 11.1111 30.4213C11.5222 30.1466 12.0055 30 12.5 30C13.1628 30.0007 13.7982 30.2644 14.2669 30.733C14.7356 31.2017 14.9992 31.8372 15 32.5ZM12.5 20C11.0166 20 9.56659 19.5601 8.33322 18.736C7.09985 17.9119 6.13856 16.7405 5.5709 15.3701C5.00325 13.9996 4.85472 12.4916 5.14411 11.0368C5.4335 9.58193 6.14781 8.24555 7.1967 7.19666C8.24559 6.14777 9.58196 5.43346 11.0368 5.14407C12.4917 4.85468 13.9997 5.00321 15.3701 5.57086C16.7406 6.13852 17.9119 7.09982 18.736 8.33318C19.5601 9.56655 20 11.0166 20 12.5C19.9978 14.4884 19.2069 16.3948 17.8009 17.8008C16.3948 19.2069 14.4885 19.9978 12.5 20ZM30 27.5C30 27.9944 29.8534 28.4778 29.5787 28.8889C29.304 29.3 28.9135 29.6204 28.4567 29.8097C27.9999 29.9989 27.4972 30.0484 27.0123 29.9519C26.5273 29.8555 26.0819 29.6174 25.7322 29.2677C25.3826 28.9181 25.1445 28.4726 25.048 27.9877C24.9516 27.5027 25.0011 27.0001 25.1903 26.5433C25.3795 26.0864 25.6999 25.696 26.1111 25.4213C26.5222 25.1466 27.0055 25 27.5 25C28.1628 25.0007 28.7983 25.2644 29.2669 25.733C29.7356 26.2017 29.9992 26.8372 30 27.5ZM32.5 15C32.0055 15 31.5222 14.8533 31.1111 14.5786C30.6999 14.3039 30.3795 13.9135 30.1903 13.4567C30.0011 12.9999 29.9516 12.4972 30.048 12.0122C30.1445 11.5273 30.3826 11.0818 30.7322 10.7322C31.0819 10.3826 31.5273 10.1445 32.0123 10.048C32.4972 9.95153 32.9999 10.001 33.4567 10.1903C33.9135 10.3795 34.304 10.6999 34.5787 11.111C34.8534 11.5222 35 12.0055 35 12.5C34.9992 13.1628 34.7356 13.7982 34.2669 14.2669C33.7983 14.7356 33.1628 14.9992 32.5 15Z" fill="#7B5EE0"/>
</g>
<defs>
<clipPath id="clip0_90_440">
<rect width="40" height="40" fill="white"/>
</clipPath>
</defs>
</svg>
