<svg width="24" height="24" viewBox="0 0 24 24" fill="none" xmlns="http://www.w3.org/2000/svg">
<path d="M20.2266 16.5359V15.7968C20.2266 14.75 19.375 13.8984 18.3281 13.8984H12.6328V12.5688C15.4727 12.2493 17.6953 9.86134 17.6953 6.93745C17.6953 3.79689 15.1406 1.19995 12 1.19995C8.85945 1.19995 6.3047 3.79689 6.3047 6.93745C6.3047 9.86134 8.52735 12.2493 11.3672 12.5688V13.8984H5.6297C4.58286 13.8984 3.73126 14.75 3.73126 15.7968V16.5359C2.28883 16.8299 1.20001 18.108 1.20001 19.6359C1.20001 21.3805 2.6195 22.8 4.36407 22.8C6.10865 22.8 7.52814 21.3805 7.52814 19.6359C7.52814 18.108 6.43932 16.8299 4.99689 16.5359V15.7968C4.99689 15.4477 5.28056 15.164 5.6297 15.164H11.3672V16.5359C9.92477 16.8299 8.83595 18.108 8.83595 19.6359C8.83595 21.3805 10.2554 22.8 12 22.8C13.7446 22.8 15.1641 21.3805 15.1641 19.6359C15.1641 18.108 14.0753 16.8299 12.6328 16.5359V15.164H18.3281C18.6773 15.164 18.961 15.4477 18.961 15.7968V16.5359C17.5185 16.8299 16.4297 18.108 16.4297 19.6359C16.4297 21.3805 17.8492 22.8 19.5938 22.8C21.3383 22.8 22.8 21.3805 22.8 19.6359C22.8 18.108 21.669 16.8299 20.2266 16.5359ZM11.5533 7.38561C11.4342 7.26677 11.3672 7.10152 11.3672 6.93745V4.4062C11.3672 4.05642 11.6502 3.77339 12 3.77339C12.3498 3.77339 12.6328 4.05642 12.6328 4.4062V6.67542L13.713 7.75564C13.9602 8.00281 13.9602 8.4033 13.713 8.65047C13.4659 8.89765 13.0654 8.89765 12.8182 8.65047L11.5533 7.38561Z" fill="#7B5EE0"/>
</svg>
