<svg width="32" height="32" viewBox="0 0 32 32" fill="none" xmlns="http://www.w3.org/2000/svg">
<g clip-path="url(#clip0_90_566)">
<path d="M27 22.1414V18C27 17.4696 26.7893 16.9609 26.4142 16.5858C26.0392 16.2107 25.5304 16 25 16H17V12H19C19.5303 11.9994 20.0386 11.7885 20.4136 11.4135C20.7885 11.0386 20.9994 10.5302 21 10V4C20.9994 3.46975 20.7885 2.9614 20.4136 2.58646C20.0386 2.21152 19.5303 2.00061 19 2H13C12.4697 2.00053 11.9613 2.21141 11.5864 2.58637C11.2114 2.96133 11.0005 3.46973 11 4V10C11.0005 10.5303 11.2114 11.0387 11.5864 11.4136C11.9613 11.7886 12.4697 11.9995 13 12H15V16H7.00001C6.46958 16 5.96087 16.2107 5.5858 16.5858C5.21072 16.9609 5.00001 17.4696 5.00001 18V22.1421C4.05735 22.3855 3.23582 22.9643 2.68941 23.7701C2.143 24.5759 1.90922 25.5533 2.03189 26.5191C2.15457 27.4849 2.62527 28.3728 3.35578 29.0164C4.08628 29.66 5.02644 30.0151 6.00001 30.0151C6.97358 30.0151 7.91374 29.66 8.64424 29.0164C9.37475 28.3728 9.84545 27.4849 9.96813 26.5191C10.0908 25.5533 9.85702 24.5759 9.31061 23.7701C8.7642 22.9643 7.94267 22.3855 7.00001 22.1421V18H15V22.142C14.0574 22.3854 13.2358 22.9642 12.6894 23.77C12.143 24.5758 11.9092 25.5532 12.0319 26.519C12.1546 27.4848 12.6253 28.3727 13.3558 29.0163C14.0863 29.6599 15.0264 30.015 16 30.015C16.9736 30.015 17.9137 29.6599 18.6442 29.0163C19.3747 28.3727 19.8455 27.4848 19.9681 26.519C20.0908 25.5532 19.857 24.5758 19.3106 23.77C18.7642 22.9642 17.9427 22.3854 17 22.142V18H25V22.1414C24.0574 22.3848 23.2358 22.9636 22.6894 23.7694C22.143 24.5752 21.9092 25.5526 22.0319 26.5184C22.1546 27.4842 22.6253 28.3721 23.3558 29.0157C24.0863 29.6593 25.0264 30.0144 26 30.0144C26.9736 30.0144 27.9137 29.6593 28.6442 29.0157C29.3747 28.3721 29.8455 27.4842 29.9681 26.5184C30.0908 25.5526 29.857 24.5752 29.3106 23.7694C28.7642 22.9636 27.9427 22.3848 27 22.1414ZM13 4H19L19.001 10H13V4ZM8.00001 26C8.00001 26.3956 7.88271 26.7822 7.66295 27.1111C7.44319 27.44 7.13083 27.6964 6.76538 27.8478C6.39992 27.9991 5.99779 28.0387 5.60983 27.9616C5.22187 27.8844 4.8655 27.6939 4.5858 27.4142C4.30609 27.1345 4.11561 26.7781 4.03844 26.3902C3.96127 26.0022 4.00087 25.6001 4.15225 25.2346C4.30363 24.8692 4.55997 24.5568 4.88887 24.3371C5.21777 24.1173 5.60445 24 6.00001 24C6.53026 24.0006 7.03861 24.2115 7.41355 24.5865C7.78849 24.9614 7.9994 25.4698 8.00001 26ZM18 26C18 26.3956 17.8827 26.7822 17.6629 27.1111C17.4432 27.44 17.1308 27.6964 16.7654 27.8478C16.3999 27.9991 15.9978 28.0387 15.6098 27.9616C15.2219 27.8844 14.8655 27.6939 14.5858 27.4142C14.3061 27.1345 14.1156 26.7781 14.0384 26.3902C13.9613 26.0022 14.0009 25.6001 14.1523 25.2346C14.3036 24.8692 14.56 24.5568 14.8889 24.3371C15.2178 24.1173 15.6044 24 16 24C16.5302 24.0007 17.0385 24.2117 17.4134 24.5866C17.7884 24.9615 17.9993 25.4698 18 26ZM26 28C25.6044 28 25.2178 27.8827 24.8889 27.6629C24.56 27.4432 24.3036 27.1308 24.1523 26.7654C24.0009 26.3999 23.9613 25.9978 24.0384 25.6098C24.1156 25.2219 24.3061 24.8655 24.5858 24.5858C24.8655 24.3061 25.2219 24.1156 25.6098 24.0384C25.9978 23.9613 26.3999 24.0009 26.7654 24.1522C27.1308 24.3036 27.4432 24.56 27.6629 24.8889C27.8827 25.2178 28 25.6044 28 26C27.9994 26.5302 27.7885 27.0386 27.4136 27.4135C27.0386 27.7885 26.5303 27.9994 26 28Z" fill="#7B5EE0"/>
</g>
<defs>
<clipPath id="clip0_90_566">
<rect width="32" height="32" fill="white"/>
</clipPath>
</defs>
</svg>
