<svg width="39" height="50" viewBox="0 0 39 50" fill="none" xmlns="http://www.w3.org/2000/svg">
<mask id="path-1-inside-1_90_401" fill="white">
<path d="M13.6298 2.63934C13.6298 1.10528 14.8771 -0.154226 16.4018 0.0154042C19.3959 0.34852 22.3132 1.21951 25.0109 2.59405C28.5359 4.39012 31.5858 6.99494 33.9111 10.1956C36.2365 13.3962 37.7714 17.1017 38.3903 21.0092C39.0092 24.9166 38.6945 28.9151 37.472 32.6776C36.2494 36.4402 34.1538 39.86 31.3563 42.6574C28.5589 45.4548 25.1391 47.5505 21.3766 48.773C17.614 49.9956 13.6156 50.3102 9.70809 49.6914C6.71767 49.2177 3.84553 48.2076 1.22746 46.7172C-0.105712 45.9583 -0.37454 44.2061 0.527158 42.965C1.42886 41.724 3.15901 41.4689 4.51546 42.1854C6.40582 43.1839 8.45315 43.868 10.5771 44.2044C13.6187 44.6862 16.7311 44.4412 19.6599 43.4896C22.5886 42.538 25.2506 40.9067 27.4281 38.7292C29.6057 36.5517 31.2369 33.8897 32.1885 30.9609C33.1401 28.0322 33.3851 24.9198 32.9034 21.8782C32.4216 18.8366 31.2269 15.9523 29.4168 13.4609C27.6067 10.9695 25.2327 8.94194 22.4889 7.54388C20.5728 6.5676 18.5144 5.91766 16.3981 5.61436C14.8795 5.39673 13.6298 4.1734 13.6298 2.63934Z"/>
</mask>
<path d="M13.6298 2.63934C13.6298 1.10528 14.8771 -0.154226 16.4018 0.0154042C19.3959 0.34852 22.3132 1.21951 25.0109 2.59405C28.5359 4.39012 31.5858 6.99494 33.9111 10.1956C36.2365 13.3962 37.7714 17.1017 38.3903 21.0092C39.0092 24.9166 38.6945 28.9151 37.472 32.6776C36.2494 36.4402 34.1538 39.86 31.3563 42.6574C28.5589 45.4548 25.1391 47.5505 21.3766 48.773C17.614 49.9956 13.6156 50.3102 9.70809 49.6914C6.71767 49.2177 3.84553 48.2076 1.22746 46.7172C-0.105712 45.9583 -0.37454 44.2061 0.527158 42.965C1.42886 41.724 3.15901 41.4689 4.51546 42.1854C6.40582 43.1839 8.45315 43.868 10.5771 44.2044C13.6187 44.6862 16.7311 44.4412 19.6599 43.4896C22.5886 42.538 25.2506 40.9067 27.4281 38.7292C29.6057 36.5517 31.2369 33.8897 32.1885 30.9609C33.1401 28.0322 33.3851 24.9198 32.9034 21.8782C32.4216 18.8366 31.2269 15.9523 29.4168 13.4609C27.6067 10.9695 25.2327 8.94194 22.4889 7.54388C20.5728 6.5676 18.5144 5.91766 16.3981 5.61436C14.8795 5.39673 13.6298 4.1734 13.6298 2.63934Z" stroke="#FFC9E9" stroke-width="10.752" mask="url(#path-1-inside-1_90_401)"/>
</svg>
