<svg width="40" height="40" viewBox="0 0 40 40" fill="none" xmlns="http://www.w3.org/2000/svg">
<path d="M11.4584 28.0417L14.25 23.25C14.1111 23.2777 13.9584 23.2986 13.7917 23.3125C13.625 23.3264 13.4723 23.3333 13.3334 23.3333C11.5 23.3333 9.9306 22.6806 8.62502 21.375C7.31946 20.0694 6.66669 18.5 6.66669 16.6667C6.66669 14.8333 7.31946 13.2639 8.62502 11.9583C9.9306 10.6528 11.5 10 13.3334 10C15.1667 10 16.7361 10.6528 18.0417 11.9583C19.3473 13.2639 20 14.8333 20 16.6667C20 17.25 19.9236 17.8219 19.7709 18.3825C19.6181 18.9433 19.3889 19.4825 19.0834 20L13.7084 29.375C13.5973 29.5972 13.4375 29.7569 13.2292 29.8542C13.0209 29.9514 12.7988 30 12.5629 30C12.0696 30 11.6998 29.7847 11.4534 29.3542C11.2067 28.9236 11.2084 28.4861 11.4584 28.0417ZM26.4584 28.0417L29.25 23.25C29.1111 23.2777 28.9584 23.2986 28.7917 23.3125C28.625 23.3264 28.4723 23.3333 28.3334 23.3333C26.5 23.3333 24.9306 22.6806 23.625 21.375C22.3194 20.0694 21.6667 18.5 21.6667 16.6667C21.6667 14.8333 22.3194 13.2639 23.625 11.9583C24.9306 10.6528 26.5 10 28.3334 10C30.1667 10 31.7361 10.6528 33.0417 11.9583C34.3473 13.2639 35 14.8333 35 16.6667C35 17.25 34.9236 17.8219 34.7709 18.3825C34.6181 18.9433 34.3889 19.4825 34.0834 20L28.7084 29.375C28.5973 29.5972 28.4375 29.7569 28.2292 29.8542C28.0209 29.9514 27.7988 30 27.5629 30C27.0696 30 26.6998 29.7847 26.4534 29.3542C26.2067 28.9236 26.2084 28.4861 26.4584 28.0417ZM13.3234 20C14.2467 20 15.0348 19.6769 15.6875 19.0308C16.3403 18.3844 16.6667 17.5997 16.6667 16.6767C16.6667 15.7533 16.3436 14.9652 15.6975 14.3125C15.0511 13.6597 14.2664 13.3333 13.3434 13.3333C12.42 13.3333 11.6319 13.6564 10.9792 14.3025C10.3264 14.9489 10 15.7336 10 16.6567C10 17.58 10.3231 18.3681 10.9692 19.0208C11.6156 19.6736 12.4003 20 13.3234 20ZM28.3234 20C29.2467 20 30.0348 19.6769 30.6875 19.0308C31.3403 18.3844 31.6667 17.5997 31.6667 16.6767C31.6667 15.7533 31.3436 14.9652 30.6975 14.3125C30.0511 13.6597 29.2664 13.3333 28.3434 13.3333C27.42 13.3333 26.6319 13.6564 25.9792 14.3025C25.3264 14.9489 25 15.7336 25 16.6567C25 17.58 25.3231 18.3681 25.9692 19.0208C26.6156 19.6736 27.4003 20 28.3234 20Z" fill="#7B5EE0"/>
</svg>
