<svg width="1440" height="1020" viewBox="0 0 1440 1020" fill="none" xmlns="http://www.w3.org/2000/svg">
<g clip-path="url(#clip0_90_183)">
<path d="M0 0C0 0 438.389 40 720 40C1001.61 40 1440 0 1440 0V960C1440 960 1009.38 1020 727.771 1020C446.159 1020 0 962.082 0 962.082V0Z" fill="#7B5EE0" fill-opacity="0.08"/>
<g opacity="0.15" clip-path="url(#clip1_90_183)">
<path d="M-116.561 144.933C-44.6281 161.921 19.9711 205.666 54.7155 273.206C73.5847 309.879 68.8919 345.017 67.1021 383.779C66.4303 398.319 63.6008 413.307 64.9446 427.85C67.0643 450.679 81.3244 465.828 100.158 478.221C128.043 496.573 156.847 487.014 187.768 485.46C222.259 483.716 256.619 483.944 288.409 499.038C354.826 530.563 388.744 603.488 374.353 673.578C366.39 712.35 376.049 744.716 415.508 760.635C439.815 770.444 467.53 766.794 492.891 765.493C536.331 763.273 582.728 766.517 618.999 792.767C696.666 848.978 654.389 966.121 689.919 1042.78C705.793 1077.04 730.953 1102.32 756.553 1129.08C765.041 1137.95 791.307 1159.17 782.476 1173.92" stroke="#EE9D29" stroke-width="0.25" stroke-miterlimit="10" stroke-linecap="round" stroke-linejoin="round"/>
<path d="M-119.667 140.375C-51.7188 158.296 10.5062 201.921 44.1482 267.907C62.7517 304.739 58.9833 340.085 60.2683 377.928C60.7705 392.727 60.9215 406.84 63.7164 420.973C68.0438 442.866 83.5506 457.904 102.626 471.363C129.975 490.661 156.826 483.507 185.958 483.593C218.502 483.686 250.977 485.441 282.299 501.022C346.071 532.736 378.297 602.398 367.514 670.146C361.44 708.345 374.39 740.264 414.237 757.195C439.893 768.102 466.328 768.5 491.376 769.123C533.342 770.15 578.375 773.655 614.532 799.764C690.314 854.546 650.239 966.699 687.881 1039.15C705.297 1072.67 733.067 1098.15 759.429 1126.05C767.922 1135 794.758 1157.26 785.591 1172.03" stroke="#E89933" stroke-width="0.25" stroke-miterlimit="10" stroke-linecap="round" stroke-linejoin="round"/>
<path d="M-122.765 135.824C-58.8094 154.672 1.28824 198.07 33.574 262.615C52.0417 299.538 49.2707 335.296 53.4205 372.093C55.1254 387.246 58.1868 400.324 62.4753 414.128C68.961 435.013 85.7629 449.995 105.074 464.544C131.909 484.749 156.785 480.038 184.137 481.772C214.719 483.704 245.33 486.977 276.177 503.051C337.309 534.917 367.921 601.482 360.655 666.752C356.454 704.493 372.707 735.888 412.953 753.786C439.957 765.791 464.97 770.209 489.839 772.777C530.167 776.935 574 780.803 610.052 806.792C683.957 860.151 646.331 967.322 685.845 1035.54C704.883 1068.41 735.136 1094.06 762.323 1123.05C770.792 1132.09 798.225 1155.38 788.715 1170.16" stroke="#E2943D" stroke-width="0.25" stroke-miterlimit="10" stroke-linecap="round" stroke-linejoin="round"/>
<path d="M-125.872 131.265C-65.9001 151.047 -8.07547 194.274 23.0068 257.315C41.2583 294.357 39.789 330.612 46.5797 366.25C49.5436 381.82 55.4264 393.757 61.2402 407.26C69.7761 427.084 87.9803 442.049 107.535 457.694C133.874 478.767 156.718 476.534 182.32 479.913C210.926 483.684 239.679 488.453 270.046 505.044C328.556 537.007 357.656 600.664 353.794 663.329C351.489 700.729 371.001 731.507 411.675 750.355C440.022 763.481 463.487 771.837 488.309 776.409C526.875 783.519 569.624 787.935 605.57 813.789C677.59 865.72 642.674 967.898 683.8 1031.9C704.545 1064.18 737.228 1089.9 765.2 1120.03C773.666 1129.15 801.675 1153.48 791.823 1168.26" stroke="#DC9048" stroke-width="0.25" stroke-miterlimit="10" stroke-linecap="round" stroke-linejoin="round"/>
<path d="M-128.97 126.714C-72.9759 147.421 -17.4382 190.493 12.4405 252.031C30.4838 289.198 30.543 325.994 39.7398 360.421C44.0262 376.465 52.5976 387.173 60.014 400.413C70.5011 419.147 89.5022 434.992 110.005 450.865C136.8 471.61 156.653 473.045 180.52 478.083C207.12 483.695 234.044 489.943 263.945 507.065C319.845 539.065 347.594 599.996 346.963 659.919C346.578 697.11 369.32 727.176 410.42 746.929C440.103 761.199 461.909 773.381 486.809 780.053C523.502 789.891 565.279 795.081 601.134 820.799C671.261 871.309 639.337 968.461 681.8 1028.28C704.332 1060.03 739.361 1085.78 768.13 1117.02C776.587 1126.22 805.179 1151.59 794.992 1166.39" stroke="#D68B52" stroke-width="0.25" stroke-miterlimit="10" stroke-linecap="round" stroke-linejoin="round"/>
<path d="M-132.083 122.164C-80.0814 143.798 -26.8227 186.72 1.86628 246.739C19.6944 284.04 21.508 321.408 32.892 354.586C38.5702 371.135 49.6934 380.579 58.772 393.553C71.1141 411.209 91.5767 427.145 112.452 444.016C138.94 465.431 156.535 469.537 178.689 476.225C203.265 483.65 228.362 491.391 257.799 509.059C311.093 541.044 337.673 599.424 340.088 656.496C341.66 693.596 367.588 722.856 409.119 743.491C440.139 758.905 460.211 774.806 485.256 783.678C520.029 795.994 560.887 802.199 596.63 827.791C664.872 876.872 636.189 968.937 679.732 1024.63C704.141 1055.87 741.438 1081.6 770.976 1113.98C779.437 1123.25 808.598 1149.67 798.068 1164.48" stroke="#D0875C" stroke-width="0.25" stroke-miterlimit="10" stroke-linecap="round" stroke-linejoin="round"/>
<path d="M-135.181 117.612C-87.1642 140.18 -36.2142 182.956 -8.70794 241.447C8.90506 278.882 12.6732 316.8 26.0443 348.751C33.1816 365.809 46.7457 374.002 57.5309 386.707C71.633 403.315 94.6948 418.139 114.9 437.197C139.823 460.7 156.394 466.023 176.867 474.404C199.389 483.629 222.71 492.853 251.677 511.089C302.391 543.011 328.001 599 333.229 653.103C336.817 690.22 365.859 718.58 407.835 740.082C440.178 756.655 458.485 776.137 483.727 787.339C516.558 801.903 556.513 809.362 592.158 834.825C658.522 882.485 633.335 969.363 677.696 1021.03C704.088 1051.77 743.548 1077.49 773.869 1110.99C782.329 1120.34 812.058 1147.8 801.193 1162.61" stroke="#CA8266" stroke-width="0.25" stroke-miterlimit="10" stroke-linecap="round" stroke-linejoin="round"/>
<path d="M-138.288 113.054C-94.2628 136.548 -45.6206 179.192 -19.2752 236.147C-1.89225 273.716 4.02279 312.158 19.2034 342.908C27.8743 360.469 45.9867 365.52 56.2957 379.839C69.2589 397.857 96.9518 410.116 117.361 430.347C141.849 454.618 156.256 462.457 175.059 472.552C195.509 483.533 217.062 494.261 245.568 513.087C293.714 544.888 318.601 598.617 326.397 649.677C332.084 686.91 364.159 714.288 406.572 736.649C440.239 754.397 456.778 777.316 482.212 790.97C513.13 807.555 552.159 816.485 587.691 841.822C652.17 888.053 619.664 983.279 675.666 1017.4C711.14 1039.02 745.664 1073.33 776.768 1107.97C785.225 1117.38 815.531 1145.9 804.323 1160.72" stroke="#C47E70" stroke-width="0.25" stroke-miterlimit="10" stroke-linecap="round" stroke-linejoin="round"/>
<path d="M-141.394 108.496C-101.346 132.916 -55.0487 175.437 -29.8424 230.848C-12.6965 268.559 -4.49774 307.448 12.3626 337.065C22.6403 355.11 42.8619 358.746 55.0686 372.977C69.8944 390.261 99.2307 402.083 119.83 423.504C143.89 448.519 156.109 458.854 173.25 470.701C191.619 483.4 211.414 495.655 239.444 515.087C285.047 546.704 318.638 597.249 319.536 646.254C334.321 681.546 362.415 710.013 405.294 733.217C440.278 752.148 451.177 787.605 480.681 794.601C514.166 802.537 547.792 823.625 583.209 848.819C645.796 893.63 617.678 984.522 673.62 1013.76C711.466 1033.53 747.771 1069.15 779.645 1104.94C788.1 1114.44 818.982 1143.99 807.438 1158.82" stroke="#BE797B" stroke-width="0.25" stroke-miterlimit="10" stroke-linecap="round" stroke-linejoin="round"/>
<path d="M-144.492 103.945C-108.429 129.298 -64.4839 171.691 -40.4167 225.556C-23.5076 263.41 -12.9241 302.695 5.51484 331.229C17.4559 349.711 37.6387 354.461 53.8265 366.117C72.8979 379.852 101.51 394.051 122.277 416.67C145.93 442.421 154.711 456.773 171.427 468.865C189.037 481.599 205.764 497.034 233.321 517.102C276.409 548.488 309.869 596.481 312.684 642.853C330.315 677.711 360.673 705.768 404.017 729.8C440.318 749.928 448.669 788.74 479.167 798.246C511.525 808.347 543.432 830.771 578.751 855.838C639.461 899.226 616.174 985.263 671.606 1010.14C711.725 1028.15 749.909 1065 782.552 1101.93C791.012 1111.5 822.463 1142.1 810.569 1156.95" stroke="#B87585" stroke-width="0.25" stroke-miterlimit="10" stroke-linecap="round" stroke-linejoin="round"/>
<path d="M-147.605 99.3942C-115.535 125.675 -73.9408 167.953 -50.9909 220.264C-34.3258 258.269 -21.2731 297.869 -1.32502 325.401C12.3508 344.269 34.568 348.056 52.5923 359.263C73.2788 372.131 103.802 386.003 124.739 409.835C147.999 436.306 155.816 451.55 169.605 467.029C183.861 483.029 200.127 498.382 227.191 519.124C267.789 550.219 301.099 595.714 305.824 639.444C326.292 673.862 358.924 701.531 402.732 726.376C440.336 747.702 446.311 789.447 477.629 801.885C508.809 814.273 539.056 837.904 574.263 862.843C633.086 904.803 614.992 985.445 669.546 1006.52C711.877 1022.87 752.01 1060.85 785.415 1098.92C793.871 1108.56 825.899 1140.21 813.663 1155.06" stroke="#B2708F" stroke-width="0.25" stroke-miterlimit="10" stroke-linecap="round" stroke-linejoin="round"/>
<path d="M-150.704 94.8428C-122.618 122.057 -83.3898 164.222 -61.5572 214.979C-45.1429 253.142 -29.5587 292.987 -8.15793 319.565C7.29431 338.771 31.4912 341.675 51.3661 352.417C73.6557 364.463 106.118 377.961 127.209 403.007C150.09 430.182 155.729 447.846 167.805 465.199C180.053 482.787 192.034 503.236 221.083 521.138C262.79 546.845 292.345 594.945 298.987 636.042C322.3 670.026 357.183 697.301 401.469 722.958C440.371 745.505 444.22 789.771 476.114 805.531C506.042 820.322 534.696 845.05 569.805 869.862C626.743 910.393 614.096 985.108 667.532 1002.9C712.001 1017.71 754.155 1056.69 788.33 1095.91C796.791 1105.63 829.388 1138.32 816.817 1153.19" stroke="#AD6C99" stroke-width="0.25" stroke-miterlimit="10" stroke-linecap="round" stroke-linejoin="round"/>
<path d="M-153.81 90.2845C-129.716 118.425 -92.8616 160.485 -72.1244 209.68C-55.9689 247.994 -37.8124 288.02 -14.9987 313.722C2.27759 333.196 28.4165 335.323 50.131 345.548C74.0415 356.816 108.438 369.881 129.67 396.157C152.186 424.035 155.677 444.102 165.988 463.34C176.265 482.506 186.274 504.533 214.966 523.13C254.301 548.635 283.589 594.147 292.133 632.611C318.292 666.162 355.426 693.058 400.183 719.519C440.382 743.288 442.427 789.74 474.584 809.162C503.173 826.422 530.32 852.183 565.323 876.86C620.369 915.97 613.315 984.242 665.487 999.258C712.059 1012.67 756.269 1052.51 791.207 1092.89C799.673 1102.68 832.823 1136.42 819.924 1151.29" stroke="#A767A3" stroke-width="0.25" stroke-miterlimit="10" stroke-linecap="round" stroke-linejoin="round"/>
<path d="M-156.908 85.7332C-136.792 114.8 -102.347 156.764 -82.6917 204.38C-66.8168 242.854 -50.6703 288.529 -21.8396 307.879C0.955264 323.184 25.3436 329.001 48.9038 338.687C74.4441 349.198 110.789 361.799 132.132 389.322C154.291 417.895 155.679 440.377 164.181 461.503C172.537 482.235 180.592 505.757 208.851 525.152C245.78 550.508 274.828 593.387 285.289 629.216C314.293 662.334 353.672 688.858 398.922 716.116C440.411 741.114 448.066 782.076 473.07 812.822C494.258 838.877 525.968 859.336 560.866 883.893C614.035 921.581 618.584 968.66 663.458 995.659C706.429 1021.51 758.408 1048.38 794.1 1089.89C802.578 1099.75 836.29 1134.54 823.048 1149.42" stroke="#A163AD" stroke-width="0.25" stroke-miterlimit="10" stroke-linecap="round" stroke-linejoin="round"/>
<path d="M-160.014 81.1749C-143.883 111.175 -111.848 153.044 -93.2659 199.088C-77.6716 237.723 -58.2685 282.975 -28.6873 302.044C-4.3985 317.706 22.2727 322.708 47.6618 331.826C74.8477 341.595 113.139 353.717 134.586 382.48C156.409 411.74 155.695 436.651 162.365 459.659C168.826 481.979 174.983 506.85 202.727 527.152C237.215 552.4 266.065 592.597 278.435 625.785C310.283 658.455 351.908 684.622 397.643 712.67C440.422 738.896 447.041 782.606 471.547 816.445C491.455 843.943 521.599 866.461 556.391 890.883C607.674 927.142 616.874 967.974 661.428 992.016C707.103 1016.66 760.552 1044.19 796.999 1086.86C805.474 1096.78 839.763 1132.63 826.185 1147.52" stroke="#9B5EB8" stroke-width="0.25" stroke-miterlimit="10" stroke-linecap="round" stroke-linejoin="round"/>
<path d="M-163.119 76.6315C-150.98 107.558 -121.362 149.339 -103.832 193.804C-88.5323 232.614 -65.8754 277.286 -35.5272 296.215C-9.75531 312.295 19.2187 316.445 46.4286 324.988C75.2691 334.036 115.497 345.642 137.049 375.659C158.544 405.598 155.774 432.966 160.55 457.83C165.153 481.758 172.309 504.659 196.605 529.181C225.274 558.111 257.289 591.837 271.584 622.398C306.278 654.635 350.141 680.439 396.367 709.268C440.422 736.739 446.16 783.164 470.018 820.106C488.724 849.071 517.225 873.623 551.919 897.917C601.317 932.748 615.18 967.189 659.392 988.41C707.827 1011.67 762.682 1040.03 799.885 1083.87C808.365 1093.87 843.223 1130.76 829.303 1145.66" stroke="#955AC2" stroke-width="0.25" stroke-miterlimit="10" stroke-linecap="round" stroke-linejoin="round"/>
<path d="M-166.226 72.0732C-158.071 103.934 -130.891 145.636 -114.414 188.505C-99.4317 227.486 -73.5288 271.459 -42.3829 290.373C-15.1399 306.916 16.1497 310.182 45.1786 318.12C75.6895 326.461 117.868 337.537 139.488 368.818C160.662 399.442 155.838 429.282 158.72 455.987C161.481 481.536 166.846 505.809 190.474 531.189C216.897 559.565 236.902 602.612 264.716 618.983C307.112 643.935 348.349 676.235 395.074 705.837C440.405 734.552 445.38 783.686 468.473 823.739C486.046 854.204 512.849 880.756 547.43 904.908C594.942 938.31 613.461 966.242 657.339 984.775C708.579 1006.41 764.811 1035.85 802.762 1080.84C811.253 1090.91 846.673 1128.85 832.41 1143.76" stroke="#8F55CC" stroke-width="0.25" stroke-miterlimit="10" stroke-linecap="round" stroke-linejoin="round"/>
<path d="M-169.324 67.5219C-165.147 100.308 -140.429 141.926 -124.974 183.212C-110.315 222.371 -79.0565 262.313 -49.2157 284.537C-22.4437 304.477 13.1195 303.939 43.9594 311.266C76.1566 318.914 120.27 329.444 141.965 361.982C162.825 393.284 155.948 425.624 156.919 454.142C157.849 481.35 161.462 506.917 184.358 533.196C208.578 560.985 230.818 600.22 257.878 615.566C302.353 640.8 346.587 672.028 393.811 702.404C440.411 732.372 444.729 784.221 466.965 827.376C483.461 859.39 508.496 887.894 542.971 911.912C588.599 943.9 611.712 965.185 655.316 981.138C709.375 1000.92 766.969 1031.66 805.653 1077.82C814.15 1087.95 850.131 1126.95 835.54 1141.87" stroke="#8951D6" stroke-width="0.25" stroke-miterlimit="10" stroke-linecap="round" stroke-linejoin="round"/>
<path d="M-172.43 62.9636C-172.245 96.6764 -149.988 138.225 -135.548 177.92C-121.235 217.266 -87.3535 257.028 -56.0635 278.702C-27.3621 298.583 10.0971 297.704 42.7173 304.406C76.6165 311.374 122.671 321.336 144.411 355.133C164.98 387.103 156.037 421.976 155.096 452.292C154.201 481.164 156.127 507.969 178.234 535.196C200.302 562.387 224.61 597.426 251.017 612.143C297.444 638.009 344.796 667.824 392.518 698.973C440.381 730.202 444.131 784.776 465.42 831.008C480.893 864.62 504.106 895.028 538.482 918.917C582.225 949.477 609.866 964.015 653.271 977.51C710.142 995.204 769.19 1027.4 808.538 1074.8C817.06 1084.99 853.589 1125.05 838.656 1139.98" stroke="#834CE0" stroke-width="0.25" stroke-miterlimit="10" stroke-linecap="round" stroke-linejoin="round"/>
<path d="M-175.529 58.4122C-179.328 93.0587 -159.546 134.538 -146.115 172.621C-132.171 212.162 -95.6683 251.7 -62.9043 272.859C-32.2764 292.635 7.07473 291.468 41.4753 297.545C77.0835 303.827 125.079 313.221 146.859 348.299C167.136 380.953 156.128 418.357 153.265 450.449C150.541 481.009 150.879 508.986 172.104 537.203C192.085 563.77 218.202 594.301 244.157 608.734C292.447 635.576 342.997 663.628 391.241 695.556C440.367 728.061 443.626 785.384 463.89 834.654C478.389 869.905 499.738 902.167 534.002 925.93C575.859 955.061 607.939 962.746 651.219 973.891C710.885 989.243 771.299 1023.25 811.408 1071.79C819.935 1082.06 857.034 1123.17 841.757 1138.1" stroke="#7D48EB" stroke-width="0.25" stroke-miterlimit="10" stroke-linecap="round" stroke-linejoin="round"/>
<path d="M-178.642 53.8619C-186.434 89.435 -169.134 130.839 -156.689 167.329C-143.142 207.069 -104.022 246.352 -69.7442 267.031C-37.1997 286.666 4.06122 285.254 40.249 290.699C77.5821 296.307 127.525 305.125 149.329 341.471C169.322 374.8 156.242 414.759 151.465 448.619C146.92 480.888 145.764 509.979 165.988 539.225C183.944 565.179 212.794 588.901 237.312 605.325C284.998 637.282 341.167 659.516 389.971 692.131C440.304 725.975 443.197 786.016 462.376 838.3C475.933 875.247 495.378 909.314 529.544 932.948C569.523 960.657 605.918 961.408 649.205 970.276C711.598 983.061 773.444 1019.1 814.323 1068.79C822.847 1079.12 860.522 1121.28 844.911 1136.23" stroke="#7743F5" stroke-width="0.25" stroke-miterlimit="10" stroke-linecap="round" stroke-linejoin="round"/>
<path d="M-181.74 49.3105C-193.516 85.8173 -178.73 127.147 -167.256 162.044C-154.128 201.99 -112.392 240.975 -76.5771 261.194C-42.111 280.651 1.07055 279.046 39.0218 283.837C78.0878 288.779 129.969 297 151.798 334.628C171.522 368.632 156.349 411.154 149.665 446.774C143.276 480.762 140.764 510.92 159.887 541.231C175.878 566.582 204.715 587.171 230.481 601.914C282.232 631.537 339.447 655.262 388.716 688.705C440.345 723.755 442.823 786.683 460.868 841.937C473.502 880.624 491.025 916.452 525.085 939.952C563.172 966.24 603.771 959.974 647.182 966.639C712.228 976.622 775.581 1014.93 817.222 1065.75C825.751 1076.16 863.995 1119.37 848.04 1134.32" stroke="#713FFF" stroke-width="0.25" stroke-miterlimit="10" stroke-linecap="round" stroke-linejoin="round"/>
<path d="M-187.229 55.2846C-196.83 92.4098 -180.565 132.165 -167.07 165.555C-151.695 203.577 -109.195 240.108 -72.957 260.964C-63.5403 266.362 -53.5575 270.378 -43.2637 273.561C-15.8585 282.009 12.9384 283.804 38.8843 288.788C46.1951 290.196 53.9695 291.73 61.8982 293.568C93.844 300.912 128.071 314.681 146.567 344.653C167.203 378.112 155.125 418.669 150.979 452.353C149.366 465.059 148.296 477.177 148.779 488.962C149.531 506.992 154.099 524.36 166.317 541.838C183.305 566.131 212.677 586.11 238.68 601.159C242.211 603.204 245.763 605.225 249.329 607.245C285.272 627.59 322.325 646.668 356.262 668.295C368.648 676.17 380.641 684.414 392.197 693.172C413.731 709.515 426.011 730.997 434.683 754.822C445.493 784.835 451.199 818.163 462.124 848.446C469.861 869.965 479.453 890.183 492.621 907.457C502.749 920.735 514.802 932.506 529.872 941.922C543.372 950.395 557.15 955.021 571.225 957.694C597.263 962.716 624.494 960.688 652.827 964.387C655.507 964.733 658.19 965.124 660.862 965.576C690.458 970.439 719.535 982.524 744.302 998.871C758.356 1008.15 771.147 1018.55 783.903 1030.13C796.508 1041.56 808.656 1054 819.423 1066.87C823.53 1071.79 833.463 1082.99 841.96 1094.61C852.629 1109.19 861.589 1124.56 853.552 1131.87" stroke="#7042FF" stroke-width="0.3095" stroke-miterlimit="10" stroke-linecap="round" stroke-linejoin="round"/>
<path d="M-192.726 61.2666C-200.152 98.9954 -182.431 137.169 -166.884 169.066C-149.3 205.144 -105.997 239.241 -69.3289 260.74C-59.9064 266.227 -49.9803 270.517 -39.8128 274.163C-12.7704 283.792 14.4582 287.28 38.733 293.754C45.5717 295.589 52.8294 297.553 60.2534 299.775C90.1087 308.704 121.814 324.886 141.331 354.716C162.872 387.638 154.039 426.22 152.296 457.962C151.635 469.949 151.376 481.334 152.552 492.424C154.391 509.39 159.892 525.853 172.756 542.468C190.749 565.695 220.657 585.078 246.895 600.418C250.45 602.498 254.013 604.571 257.59 606.642C293.655 627.599 329.836 648.28 361.926 671.327C373.636 679.716 384.855 688.459 395.671 697.646C415.783 714.732 427.162 736.587 435.224 760.788C445.428 791.446 451.521 825.099 463.36 854.978C471.71 876.181 482.189 895.707 496.208 911.947C506.93 924.372 519.346 935.313 534.646 943.922C548.316 951.675 562.247 955.679 576.448 957.888C602.616 961.946 630.007 959.161 658.466 962.173C661.172 962.458 663.874 962.795 666.579 963.177C696.606 967.452 726.124 980.442 749.313 997.885C762.443 1007.76 773.795 1018.54 786.188 1030.59C798.34 1042.41 810.683 1055.19 821.619 1068.03C826.067 1073.24 836.35 1084.67 845.223 1095.77C856.276 1109.59 866.238 1123.18 859.074 1129.45" stroke="#6E44FF" stroke-width="0.369" stroke-miterlimit="10" stroke-linecap="round" stroke-linejoin="round"/>
<path d="M-198.215 67.2407C-203.466 105.588 -184.312 142.16 -166.698 172.577C-146.936 206.698 -102.799 238.374 -65.7089 260.51C-56.2725 266.093 -46.4032 270.655 -36.3629 274.75C-9.69127 285.553 15.976 290.726 38.5955 298.705C44.962 300.966 51.71 303.352 58.6144 305.959C86.3913 316.427 115.542 335.077 136.1 364.741C158.54 397.133 152.882 433.708 153.625 463.54C153.91 474.801 154.454 485.462 156.338 495.855C159.264 511.757 165.699 527.316 179.207 543.066C198.221 565.241 228.641 584.008 255.115 599.654C258.696 601.77 262.284 603.893 265.865 606.024C302.059 627.584 337.368 649.867 367.596 674.35C378.631 683.254 389.084 692.488 399.159 702.105C417.842 719.941 428.299 742.178 435.786 766.73C445.34 798.065 451.878 832.01 464.616 861.487C473.573 882.381 484.939 901.199 499.807 916.405C511.115 927.971 523.915 938.058 539.433 945.876C553.291 952.871 567.349 956.314 581.682 958.022C607.962 961.169 635.544 957.543 664.117 959.898C666.849 960.121 669.576 960.398 672.3 960.726C702.772 964.382 732.701 978.292 754.336 996.853C766.533 1007.31 776.464 1018.48 788.476 1031C800.183 1043.2 812.712 1056.31 823.825 1069.12C828.615 1074.65 839.248 1086.28 848.497 1096.86C859.925 1109.92 870.891 1121.74 864.607 1126.98" stroke="#6D47FF" stroke-width="0.4286" stroke-miterlimit="10" stroke-linecap="round" stroke-linejoin="round"/>
<path d="M-203.705 73.2148C-206.78 112.18 -186.233 147.13 -166.512 176.089C-144.603 208.239 -99.6633 237.593 -62.0808 260.287C-52.6446 265.982 -42.825 270.808 -32.9121 275.352C-6.62306 287.374 17.4958 294.202 38.451 303.663C44.3455 306.351 50.5838 309.159 56.9685 312.15C82.66 324.167 109.262 345.276 130.863 374.774C154.178 406.631 151.724 441.197 154.94 469.12C156.147 479.647 157.525 489.597 160.103 499.296C164.108 514.126 171.49 528.779 185.629 543.667C205.678 564.788 236.595 582.941 263.321 598.891C266.926 601.042 270.532 603.209 274.132 605.398C310.463 627.569 344.885 651.456 373.265 677.359C383.617 686.771 393.297 696.503 402.638 706.556C419.9 725.121 429.42 747.77 436.334 772.673C445.223 804.687 452.212 838.915 465.849 867.989C475.42 888.567 487.659 906.693 503.392 920.865C515.27 931.572 528.456 940.82 544.197 947.84C558.239 954.098 572.43 956.958 586.895 958.18C613.287 960.416 641.067 955.941 669.746 957.647C672.504 957.809 675.258 958.024 678 958.299C708.909 961.329 739.257 976.167 759.337 995.831C770.611 1006.88 779.11 1018.42 790.743 1031.42C802.005 1043.99 814.735 1057.44 825.995 1070.22C831.134 1076.06 842.093 1087.89 851.734 1097.96C863.524 1110.27 875.515 1120.32 870.103 1124.51" stroke="#6B49FF" stroke-width="0.4881" stroke-miterlimit="10" stroke-linecap="round" stroke-linejoin="round"/>
<path d="M-209.201 79.1968C-210.109 118.774 -188.197 152.104 -166.326 179.6C-142.315 209.784 -96.4727 236.734 -58.4607 260.056C-49.0107 265.847 -39.2628 270.947 -29.4622 275.939C-3.54299 289.15 19.0066 297.655 38.3066 308.622C43.7359 311.728 49.4426 314.966 55.3375 318.341C78.9346 331.884 102.983 355.474 125.641 384.821C149.824 416.151 150.574 448.692 156.263 474.721C158.399 484.508 160.583 493.762 163.891 502.756C168.946 516.532 177.32 530.262 192.075 544.303C213.167 564.363 244.567 581.917 271.543 598.156C275.173 600.344 278.797 602.554 282.401 604.803C318.854 627.585 352.411 653.081 378.929 680.406C388.613 690.324 397.511 700.548 406.12 711.038C421.951 730.323 430.528 753.393 436.89 778.638C445.114 811.33 452.621 845.815 467.1 874.521C477.313 894.765 490.373 912.21 506.994 925.353C519.443 935.202 533.006 943.619 548.986 949.839C563.204 955.369 577.536 957.637 592.133 958.373C618.63 959.707 646.615 954.374 675.401 955.431C678.184 955.532 680.957 955.693 683.732 955.899C715.084 958.295 745.85 974.047 764.371 994.85C774.711 1006.46 781.795 1018.39 793.057 1031.88C803.874 1044.83 816.803 1058.59 828.221 1071.38C833.708 1077.52 844.995 1089.57 855.027 1099.11C867.185 1110.66 880.194 1118.93 875.654 1122.09" stroke="#6A4CFF" stroke-width="0.5476" stroke-miterlimit="10" stroke-linecap="round" stroke-linejoin="round"/>
<path d="M-214.691 85.1709C-213.423 125.366 -190.192 157.08 -166.14 183.111C-140.071 211.331 -93.2889 235.883 -54.8257 259.825C-45.3768 265.713 -35.6707 271.084 -25.9974 276.525C-0.448914 290.91 20.5671 301.069 38.1761 313.564C43.1482 317.097 48.3303 320.757 53.7055 324.517C75.2163 339.593 96.6958 365.666 120.417 394.839C145.462 425.649 149.406 456.129 157.6 480.291C160.665 489.338 163.675 497.889 167.684 506.18C173.819 518.899 182.748 532.204 198.533 544.894C221.285 563.173 252.566 580.846 279.771 597.384C283.425 599.607 287.075 601.868 290.683 604.176C327.266 627.563 359.95 654.661 384.621 683.421C393.63 693.854 401.753 704.562 409.623 715.495C424.023 735.502 431.673 758.991 437.46 784.587C445.012 817.95 452.985 852.719 468.364 881.037C479.191 900.965 493.1 917.712 510.603 929.834C523.607 938.825 537.572 946.417 553.775 951.824C568.161 956.619 582.641 958.302 597.369 958.536C623.978 958.96 652.153 952.772 681.053 953.187C683.863 953.226 686.653 953.319 689.455 953.478C721.251 955.24 752.427 971.898 769.395 993.833C778.817 1006.02 784.464 1018.33 795.347 1032.3C805.725 1045.63 818.856 1059.72 830.421 1072.48C836.263 1078.92 848.252 1090.74 858.286 1100.2C870.317 1111.53 884.84 1117.5 881.165 1119.63" stroke="#684EFF" stroke-width="0.6071" stroke-miterlimit="10" stroke-linecap="round" stroke-linejoin="round"/>
<path d="M-220.187 91.1529C-216.752 131.96 -192.215 162.072 -165.961 186.63C-137.862 212.902 -90.1052 235.032 -51.2126 259.602C-41.7498 265.587 -32.1084 271.223 -22.5614 277.127C2.61635 292.686 22.1484 304.458 38.0168 318.524C42.5029 322.499 47.1813 326.558 52.0448 330.71C71.4533 347.305 90.3798 375.875 115.164 404.873C141.056 435.165 148.194 463.584 158.9 485.871C162.886 494.171 166.731 502.025 171.433 509.621C178.656 521.276 188.977 533.168 204.94 545.496C228.162 563.43 260.505 579.78 287.954 596.615C291.633 598.874 295.3 601.178 298.927 603.545C335.64 627.55 367.444 656.244 390.261 686.432C398.594 697.379 405.942 708.556 413.08 719.941C426.064 740.653 432.749 764.586 437.992 790.516C444.865 824.573 453.311 859.617 469.597 887.524C481.037 907.136 495.776 923.209 514.187 934.278C527.733 942.428 542.105 949.172 558.545 953.765C573.1 957.84 587.721 958.932 602.588 958.671C629.303 958.207 657.689 951.139 686.689 950.913C689.524 950.891 692.34 950.922 695.161 951.028C727.401 952.157 759.002 969.704 774.404 992.803C782.9 1005.55 787.131 1018.25 797.621 1032.71C807.553 1046.41 820.899 1060.83 832.606 1073.58C838.797 1080.33 850.702 1092.81 861.538 1101.3C874.381 1111.35 889.479 1116.07 886.676 1117.16" stroke="#6751FF" stroke-width="0.6667" stroke-miterlimit="10" stroke-linecap="round" stroke-linejoin="round"/>
<path d="M-225.669 97.134C-220.058 138.559 -194.26 167.073 -165.76 190.14C-135.676 214.483 -86.8998 234.172 -47.5697 259.378C-38.1011 265.451 -28.5085 271.367 -19.0888 277.72C5.71825 294.453 23.6205 308.004 37.8951 323.488C41.93 327.866 46.0698 332.364 50.4216 336.908C67.7349 355.014 84.0796 386.097 109.957 414.919C136.689 444.7 146.997 471.037 160.238 491.471C165.131 499.025 169.826 506.181 175.228 513.074C183.531 523.673 194.836 534.635 211.4 546.116C235.701 562.979 268.498 578.732 296.191 595.88C299.902 598.166 303.58 600.522 307.211 602.948C344.053 627.557 374.977 657.861 395.947 689.469C403.604 700.917 410.186 712.584 416.577 724.421C428.143 745.838 433.873 770.207 438.556 796.488C444.75 831.224 453.662 866.551 470.847 894.056C482.901 913.351 498.461 928.743 517.78 938.76C531.869 946.068 546.656 951.971 563.327 955.757C578.058 959.104 592.811 959.612 607.81 958.85C634.638 957.491 663.213 949.552 692.32 948.677C695.173 948.586 698.022 948.563 700.869 948.607C733.544 949.095 765.584 967.532 779.413 991.802C786.99 1005.1 789.792 1018.2 799.904 1033.16C809.405 1047.22 822.952 1061.97 834.807 1074.71C841.354 1081.76 853.55 1094.46 864.807 1102.43C877.983 1111.75 894.126 1114.67 892.204 1114.72" stroke="#6553FF" stroke-width="0.7262" stroke-miterlimit="10" stroke-linecap="round" stroke-linejoin="round"/>
<path d="M-231.159 103.108C-223.372 145.152 -196.333 172.106 -165.574 193.651C-133.524 216.103 -83.7022 233.305 -43.9495 259.147C-34.4672 265.317 -24.9393 271.499 -15.6458 278.315C8.79844 296.229 25.1393 311.465 37.7428 328.44C41.3056 333.244 44.9347 338.149 48.7758 343.099C64.0008 362.709 77.7577 396.328 104.713 424.96C132.277 454.239 145.74 478.495 161.546 497.058C167.337 503.859 172.89 510.324 179 516.521C188.39 526.056 200.686 536.079 217.831 546.739C243.217 562.508 276.461 577.686 304.398 595.131C308.134 597.454 311.83 599.868 315.472 602.346C352.443 627.558 382.495 659.465 401.603 692.509C408.585 704.471 414.399 716.615 420.051 728.896C430.215 751.002 434.966 775.831 439.104 802.446C444.612 837.87 454.005 873.463 472.089 900.58C484.75 919.567 501.139 934.285 521.374 943.241C536.005 949.722 551.199 954.763 568.1 957.743C583.007 960.361 597.902 960.293 613.032 959.03C639.966 956.782 668.744 947.957 697.958 946.447C700.837 946.296 703.713 946.211 706.579 946.202C739.704 946.048 772.175 965.368 784.424 990.801C791.089 1004.64 792.461 1018.15 802.18 1033.6C811.25 1048.02 825.004 1063.09 836.986 1075.84C843.888 1083.18 856.384 1096.12 868.054 1103.55C881.554 1112.14 898.767 1113.26 897.709 1112.28" stroke="#6456FF" stroke-width="0.7857" stroke-miterlimit="10" stroke-linecap="round" stroke-linejoin="round"/>
<path d="M-236.655 109.09C-226.701 151.745 -198.434 177.171 -165.395 197.17C-131.393 217.747 -80.5116 232.445 -40.3285 258.932C-30.8334 265.183 -21.3612 271.652 -12.1871 278.924C11.8864 298.011 26.667 314.948 37.6062 333.405C40.7048 338.643 43.8084 343.956 47.1378 349.298C60.2744 370.411 71.4356 406.56 99.4828 435C127.873 463.784 145.195 485.204 162.876 502.651C169.301 508.985 175.992 514.472 182.787 519.967C193.264 528.438 206.551 537.522 224.284 547.353C250.769 562.027 284.447 576.646 312.619 594.382C316.388 596.747 320.094 599.198 323.755 601.734C360.856 627.565 390.027 661.067 407.296 695.539C413.603 708.015 418.656 720.627 423.554 733.368C432.315 756.164 436.082 781.445 439.675 808.41C444.496 844.521 454.363 880.389 473.354 907.111C486.629 925.781 503.826 939.849 524.991 947.729C540.157 953.376 555.765 957.575 572.903 959.726C587.972 961.617 603.015 960.965 618.283 959.192C645.315 956.065 674.303 946.33 703.625 944.201C706.53 943.988 709.432 943.842 712.316 943.78C745.884 942.977 778.808 963.17 789.463 989.798C795.224 1004.19 795.166 1018.08 804.494 1034.05C813.138 1048.82 827.094 1064.22 839.211 1076.98C846.468 1084.61 859.248 1097.79 871.345 1104.69C885.163 1112.54 903.437 1111.86 903.252 1109.85" stroke="#6258FF" stroke-width="0.8452" stroke-miterlimit="10" stroke-linecap="round" stroke-linejoin="round"/>
<path d="M-242.145 115.064C-230.015 158.338 -200.534 182.251 -165.202 200.673C-129.268 219.414 -77.307 231.571 -36.6945 258.686C-27.1856 265.033 -17.7781 271.767 -8.73023 279.503C14.9795 299.756 28.1927 318.401 37.4687 338.356C40.1022 344.013 42.696 349.747 45.4989 355.482C56.5689 378.089 65.1057 416.784 94.26 445.033C123.47 473.33 143.2 493.457 164.206 508.23C171.766 513.555 179.078 518.606 186.566 523.406C198.139 530.82 212.407 538.944 230.72 547.952C258.313 561.524 292.416 575.578 320.832 593.611C324.625 596.012 328.35 598.506 332.014 601.102C369.245 627.536 397.536 662.649 412.951 698.549C418.581 711.525 422.882 724.612 427.019 737.821C434.393 761.305 437.152 787.048 440.214 814.347C444.334 851.145 454.689 887.287 474.588 913.614C488.469 931.975 506.489 945.391 528.576 952.188C544.271 957.024 560.292 960.353 577.668 961.69C592.905 962.861 608.096 961.623 623.496 959.35C650.634 955.335 679.825 944.713 709.255 941.95C712.186 941.676 715.098 941.469 718.024 941.344C752.034 939.893 785.419 960.967 794.465 988.775C799.328 1003.71 797.834 1018.01 806.761 1034.46C814.974 1049.61 829.144 1065.32 841.388 1078.07C849.009 1086.01 862.05 1099.44 874.589 1105.76C888.711 1112.91 908.067 1110.42 908.755 1107.36" stroke="#615BFF" stroke-width="0.9048" stroke-miterlimit="10" stroke-linecap="round" stroke-linejoin="round"/>
<path d="M-247.641 121.046C-233.336 164.938 -202.645 187.376 -165.023 204.192C-127.148 221.118 -74.1243 230.705 -33.0734 258.47C-23.5507 264.913 -14.2078 271.913 -5.27935 280.105C18.0666 301.524 29.7125 321.876 37.3243 343.314C39.4857 349.398 41.5688 355.539 43.8609 361.681C52.8566 385.775 58.763 427.039 89.0233 455.081C119.045 482.899 141.91 500.984 165.514 513.832C173.961 518.435 182.143 522.764 190.332 526.861C202.998 533.203 218.257 540.388 237.151 548.575C265.841 561.021 300.379 574.532 329.04 592.878C332.857 595.314 336.6 597.852 340.276 600.515C377.629 627.56 405.055 664.268 418.615 701.595C423.57 715.087 427.117 728.633 430.501 742.302C436.501 766.474 438.245 792.672 440.764 820.319C444.182 857.806 455.026 894.237 475.823 920.146C490.304 938.192 509.148 950.972 532.163 956.678C548.387 960.703 564.829 963.168 582.442 963.69C597.849 964.141 613.181 962.327 628.711 959.537C655.957 954.649 685.341 943.119 714.887 939.729C717.843 939.393 720.782 939.125 723.726 938.947C758.171 936.84 792.04 958.8 799.476 987.789C803.442 1003.27 800.518 1017.95 809.044 1034.91C816.84 1050.4 831.204 1066.46 843.583 1079.21C851.566 1087.44 864.886 1101.12 877.851 1106.9C892.285 1113.34 912.708 1109.02 914.276 1104.93" stroke="#5F5DFF" stroke-width="0.9643" stroke-miterlimit="10" stroke-linecap="round" stroke-linejoin="round"/>
<path d="M-253.131 127.02C-236.658 171.524 -204.756 192.516 -164.837 207.703C-125.034 222.846 -70.9267 229.838 -29.4533 258.24C-19.9247 264.772 -10.6307 272.051 -1.82951 280.692C21.1457 303.285 31.2234 325.33 37.1868 348.265C38.8761 354.775 40.4485 361.323 42.222 367.865C49.159 393.46 53.0391 436.604 83.7924 465.106C114.013 493.113 140.628 508.503 166.844 519.41C176.184 523.297 185.235 526.89 194.126 530.3C207.879 535.576 224.142 541.793 243.603 549.188C273.414 560.501 308.364 573.477 337.268 592.12C341.111 594.592 344.879 597.181 348.565 599.895C386.056 627.551 412.602 665.869 424.3 704.618C428.58 718.624 431.382 732.637 433.997 746.768C438.616 771.62 439.346 798.288 441.334 826.269C444.043 864.436 455.383 901.148 477.094 926.654C492.188 944.383 511.843 956.542 535.77 961.143C552.531 964.364 569.386 965.959 587.236 965.652C602.82 965.389 618.293 962.984 633.954 959.693C661.314 953.939 690.892 941.485 720.546 937.476C723.52 937.072 726.492 936.749 729.456 936.517C764.35 933.754 798.703 956.6 804.5 986.772C807.583 1002.8 803.215 1017.88 811.342 1035.34C818.713 1051.19 833.285 1067.57 845.791 1080.34C854.137 1088.86 867.721 1102.81 881.127 1108.02C895.865 1113.76 917.371 1107.62 919.81 1102.49" stroke="#5E60FF" stroke-width="1.0238" stroke-miterlimit="10" stroke-linecap="round" stroke-linejoin="round"/>
<path d="M-258.62 132.994C-239.972 178.117 -206.858 197.677 -164.645 211.206C-122.897 224.579 -67.7152 228.955 -25.8183 258.008C-16.269 264.629 -7.03966 272.174 1.62832 281.286C24.2397 305.045 32.6986 328.809 37.0424 353.224C38.2527 360.168 39.3292 367.122 40.5761 374.056C45.4614 401.145 46.0615 447.536 78.5548 475.139C110.179 502.009 139.347 516.051 168.158 524.989C178.377 528.162 188.313 531.017 197.897 533.732C212.744 537.937 229.996 543.185 250.032 549.781C280.946 559.947 316.334 572.409 345.473 591.342C349.34 593.85 353.126 596.483 356.817 599.256C394.429 627.523 420.103 667.444 429.954 707.613C433.565 722.126 435.614 736.614 437.468 751.198C440.722 776.744 440.422 803.868 441.879 832.182C443.88 871.045 455.709 908.032 478.334 933.134C494.035 950.554 514.499 962.094 539.362 965.58C556.652 968.005 573.927 968.721 592.007 967.593C607.76 966.61 623.374 963.628 639.18 959.82C666.647 953.193 696.426 939.823 726.189 935.195C729.189 934.729 732.187 934.345 735.176 934.052C770.505 930.633 805.371 954.363 809.529 985.717C811.73 1002.29 805.924 1017.76 813.636 1035.73C820.598 1051.93 835.363 1068.63 847.996 1081.4C856.704 1090.21 870.553 1104.44 884.399 1109.08C899.45 1114.13 922.029 1106.14 925.333 1099.97" stroke="#5C62FF" stroke-width="1.0833" stroke-miterlimit="10" stroke-linecap="round" stroke-linejoin="round"/>
<path d="M-264.116 138.976C-243.301 184.71 -208.964 202.877 -164.466 214.725C-120.772 226.358 -64.5256 228.081 -22.2052 257.786C-12.65 264.495 -3.4556 272.304 5.07122 281.88C27.3753 306.757 34.2173 332.269 36.89 358.175C37.6282 365.546 38.2019 372.914 38.9371 380.24C41.7708 408.823 39.7116 457.799 73.3318 485.171C105.762 511.585 138.098 523.613 169.488 530.567C180.608 533.032 191.399 535.152 201.676 537.171C217.609 540.297 235.858 544.584 256.476 550.388C288.502 559.398 324.304 571.355 353.686 590.586C357.578 593.13 361.375 595.814 365.084 598.645C402.827 627.517 427.628 669.039 435.632 710.644C438.56 725.664 439.878 740.619 440.965 755.678C442.86 781.911 441.515 809.491 442.443 838.154C443.728 877.706 456.053 914.973 479.584 939.665C495.892 956.777 517.182 967.71 542.963 970.069C560.792 971.704 578.487 971.541 596.796 969.592C612.711 967.896 628.482 964.337 644.41 960.006C671.992 952.513 701.963 938.22 731.835 932.972C734.861 932.445 737.877 931.993 740.893 931.653C776.663 927.571 812.037 952.208 814.54 984.731C815.859 1001.84 808.616 1017.71 815.913 1036.18C822.457 1052.74 837.43 1069.76 850.184 1082.55C859.255 1091.65 873.368 1106.17 887.654 1110.23C903.011 1114.59 926.67 1104.76 930.84 1097.56" stroke="#5B65FF" stroke-width="1.1429" stroke-miterlimit="10" stroke-linecap="round" stroke-linejoin="round"/>
<path d="M-269.606 144.95C-246.615 191.303 -211.048 208.082 -164.28 218.236C-118.625 228.142 -61.321 227.206 -18.5771 257.562C-9.00124 264.36 0.128517 272.434 8.52211 282.482C30.4704 308.532 35.7361 335.73 36.7456 363.134C37.0186 370.924 37.0895 378.705 37.2912 386.432C38.0812 416.515 33.3549 468.07 68.0872 495.213C101.308 521.171 136.834 531.19 170.796 536.17C182.811 537.933 194.477 539.279 205.441 540.626C222.467 542.65 241.713 545.991 262.907 551.01C296.035 558.858 332.267 570.309 361.901 589.845C365.818 592.424 369.64 595.159 373.353 598.05C411.233 627.531 435.147 670.658 441.296 713.69C443.549 729.225 444.129 744.654 444.447 760.159C444.985 787.093 442.594 815.116 442.999 844.119C443.561 884.353 456.355 921.948 480.834 946.196C497.706 963.033 519.865 973.326 546.565 974.557C564.931 975.403 583.032 974.363 601.578 971.584C617.67 969.176 633.588 965.032 649.64 960.192C677.337 951.833 707.493 936.61 737.482 930.75C740.532 930.146 743.575 929.648 746.617 929.247C782.829 924.501 818.717 950.037 819.566 983.744C820.018 1001.41 811.322 1017.66 818.213 1036.64C824.347 1053.55 839.521 1070.9 852.387 1083.7C861.827 1093.08 876.2 1107.91 890.916 1111.37C906.58 1115.05 931.311 1103.37 936.361 1095.13" stroke="#5967FF" stroke-width="1.2024" stroke-miterlimit="10" stroke-linecap="round" stroke-linejoin="round"/>
<path d="M-275.095 150.939C-249.921 197.902 -213.13 213.317 -164.086 221.754C-116.461 229.941 -58.0471 226.252 -14.9422 257.331C-5.34653 264.202 3.72052 272.571 11.9868 283.068C33.5644 310.292 37.2549 339.191 36.616 368.091C36.4169 376.308 35.985 384.502 35.6602 392.623C34.4074 424.221 26.9982 478.34 62.8644 505.245C96.8847 530.755 135.592 538.759 172.126 541.748C185.042 542.802 197.563 543.413 209.235 544.064C227.348 545.024 247.589 547.374 269.351 551.617C303.589 558.28 340.244 569.247 370.115 589.089C374.056 591.703 377.896 594.482 381.62 597.424C419.622 627.518 442.67 672.239 446.965 716.699C448.549 732.741 448.393 748.643 447.927 764.611C447.122 792.245 443.664 820.718 443.547 850.062C443.384 890.979 456.689 928.853 482.076 952.706C499.561 969.226 522.547 978.927 550.158 979.024C569.07 979.087 587.582 977.162 606.357 973.547C622.626 970.425 638.686 965.704 654.86 960.342C682.672 951.132 713.021 934.97 743.118 928.491C746.195 927.826 749.263 927.266 752.324 926.811C788.978 921.402 825.389 947.86 824.582 982.72C824.159 1000.94 814.033 1017.57 820.494 1037.06C826.227 1054.33 841.593 1071.99 854.587 1084.8C864.396 1094.46 879.028 1109.6 894.183 1112.46C910.154 1115.48 935.965 1101.94 941.887 1092.66" stroke="#586AFF" stroke-width="1.2619" stroke-miterlimit="10" stroke-linecap="round" stroke-linejoin="round"/>
<path d="M-280.584 156.913C-253.243 204.488 -215.197 218.551 -163.908 225.258C-114.305 231.747 -54.8644 225.386 -11.3221 257.1C-1.71265 264.068 7.28973 272.703 15.4367 283.655C36.6514 312.06 38.7806 342.644 36.4706 373.035C35.8073 381.685 34.8647 390.286 34.0133 398.8C30.7246 431.905 20.6276 488.627 57.6336 515.27C92.4461 540.34 134.357 546.32 173.448 547.319C187.258 547.673 200.641 547.54 213.013 547.488C232.213 547.384 253.441 548.736 275.795 552.208C311.126 557.687 348.228 568.178 378.334 588.31C382.3 590.96 386.158 593.782 389.894 596.791C428.025 627.488 450.194 673.819 452.634 719.708C453.535 736.257 452.657 752.648 451.413 769.054C449.267 797.389 444.739 826.298 444.108 855.989C443.221 897.588 457.03 935.75 483.331 959.2C501.423 975.411 525.243 984.512 553.756 983.467C573.214 982.749 592.131 979.931 611.143 975.501C627.589 971.666 643.79 966.369 660.102 960.483C688.029 950.407 718.57 933.306 748.777 926.223C751.879 925.497 754.965 924.868 758.053 924.367C795.147 918.279 832.09 945.665 829.605 981.688C828.309 1000.47 816.744 1017.48 822.79 1037.46C828.113 1055.09 843.679 1073.06 856.793 1085.89C866.98 1095.84 881.872 1111.29 897.457 1113.56C913.751 1115.92 940.633 1100.5 947.419 1090.18" stroke="#566CFF" stroke-width="1.3214" stroke-miterlimit="10" stroke-linecap="round" stroke-linejoin="round"/>
<path d="M-286.074 162.888C-256.557 211.08 -217.256 223.792 -163.722 228.769C-112.125 233.56 -51.6747 224.512 -7.70191 256.87C1.92032 263.919 10.8669 272.841 18.8797 284.25C39.7236 313.828 40.2846 346.106 36.3262 377.993C35.1909 387.07 33.7534 396.092 32.3754 404.999C27.1044 439.63 14.265 498.921 52.3969 525.318C87.9947 549.956 133.124 553.91 174.771 552.92C189.491 552.572 203.719 551.682 216.787 550.95C237.065 549.775 259.289 550.136 282.233 552.838C318.666 557.125 356.199 567.139 386.542 587.576C390.533 590.263 394.409 593.128 398.156 596.203C436.417 627.519 457.706 675.446 458.307 722.762C458.532 739.826 456.924 756.697 454.896 773.551C451.4 802.594 445.752 831.935 444.658 861.977C442.965 904.256 457.375 942.707 484.574 965.739C503.28 981.634 527.936 990.166 557.345 987.972C577.349 986.486 596.679 982.797 615.911 977.51C632.528 972.984 648.876 967.088 665.31 960.678C693.36 949.743 724.06 931.647 754.401 924.01C757.522 923.215 760.642 922.532 763.755 921.969C801.272 915.16 838.757 943.525 834.609 980.71C832.447 1000.05 819.444 1017.44 825.068 1037.93C829.996 1055.91 845.747 1074.2 858.981 1087.04C869.537 1097.27 884.704 1113.05 900.712 1114.7C917.314 1116.41 945.267 1099.11 952.933 1087.76" stroke="#556FFF" stroke-width="1.381" stroke-miterlimit="10" stroke-linecap="round" stroke-linejoin="round"/>
<path d="M-291.57 168.87C-259.878 217.681 -219.307 229.055 -163.536 232.28C-109.93 235.386 -48.4771 223.645 -4.07388 256.646C5.56213 263.791 14.4441 272.979 22.3454 284.851C42.8335 315.602 41.8192 349.58 36.1897 382.959C34.5892 392.454 32.642 401.898 30.7375 411.197C23.394 447.346 7.85568 509.3 47.1671 535.358C83.5094 559.626 131.909 561.544 176.087 558.514C191.717 557.48 206.791 555.832 220.559 554.398C241.925 552.158 265.135 551.521 288.663 553.446C326.181 556.526 364.161 566.078 394.755 586.82C398.771 589.542 402.673 592.458 406.423 595.578C444.814 627.497 465.237 677.034 463.969 725.778C463.526 743.349 461.211 760.707 458.376 778.002C453.591 807.765 446.844 837.529 445.212 867.912C442.818 910.879 457.717 949.604 485.823 972.241C505.135 987.827 530.633 995.766 560.944 992.43C581.502 990.169 601.235 985.573 620.697 979.464C637.499 974.217 653.997 967.766 670.545 960.827C698.728 949.069 729.604 930.021 760.045 921.743C763.191 920.887 766.329 920.136 769.469 919.526C807.429 912.068 845.519 941.357 839.625 979.671C836.633 999.575 822.191 1017.33 827.349 1038.34C831.904 1056.66 847.839 1075.25 861.173 1088.13C872.112 1098.63 887.534 1114.76 903.971 1115.79C920.903 1116.85 949.913 1097.68 958.444 1085.3" stroke="#5371FF" stroke-width="1.4405" stroke-miterlimit="10" stroke-linecap="round" stroke-linejoin="round"/>
<path d="M-297.06 174.844C-263.2 224.266 -221.342 234.317 -163.35 235.791C-95.7718 237.516 -18.0797 215.832 25.7953 285.438C51.6376 326.444 40.0334 373.637 29.0985 417.381C19.6825 455.047 1.53366 519.531 41.9442 545.391C92.274 577.592 168.994 565.997 224.353 557.836C287.437 548.532 364.276 552.381 414.706 594.967C453.226 627.489 472.77 678.636 469.654 728.801C466.605 777.932 449.223 825.242 445.782 873.861C440.572 947.476 487.929 1007.93 564.56 996.903C603.87 991.244 639.755 977.092 675.796 960.989C707.036 947.038 741.634 924.192 775.214 917.096C813.616 908.989 852.17 939.188 844.671 978.661C840.776 999.131 824.911 1017.26 829.669 1038.77C833.808 1057.46 849.929 1076.38 863.397 1089.26C874.698 1100.05 890.403 1116.5 907.262 1116.91C924.518 1117.33 954.582 1096.27 963.994 1082.85" stroke="#5274FF" stroke-width="1.5" stroke-miterlimit="10" stroke-linecap="round" stroke-linejoin="round"/>
</g>
</g>
<defs>
<clipPath id="clip0_90_183">
<rect width="1440" height="1020" fill="white"/>
</clipPath>
<clipPath id="clip1_90_183">
<rect width="1337.39" height="268.18" fill="white" transform="translate(-20.4298 178.526) rotate(41.2404)"/>
</clipPath>
</defs>
</svg>
