<svg width="1287" height="477" viewBox="0 0 1287 477" fill="none" xmlns="http://www.w3.org/2000/svg">
<g style="mix-blend-mode:plus-lighter" opacity="0.15" clip-path="url(#clip0_90_692)">
<path d="M-48.5446 19.3239C17.9481 -1.73702 91.453 2.4269 152.293 40.3188C185.331 60.8912 198.54 91.6266 215.854 123.892C222.348 135.996 227.312 149.507 235.44 160.636C248.209 178.103 267.094 183.471 288.349 184.393C319.821 185.76 338.527 164.073 362.822 147.846C389.917 129.736 417.86 113.288 450.919 110.126C519.981 103.512 582.759 146.164 605.031 209.908C617.35 245.169 640.842 266.712 680.512 260.506C704.95 256.685 725.633 240.311 745.548 226.981C779.661 204.154 818.815 184.321 860.904 188.027C951.03 195.963 973.49 311.32 1039.38 356.221C1068.83 376.287 1101.44 384.585 1135.13 393.867C1146.3 396.943 1177.85 401.418 1177.84 417.645" stroke="#EE9D29" stroke-width="0.25" stroke-miterlimit="10" stroke-linecap="round" stroke-linejoin="round"/>
<path d="M-53.2674 17.1349C10.4497 -1.24085 81.9732 3.97502 141.168 41.1411C174.067 61.9712 188.125 92.4275 207.486 122.46C215.057 134.205 222.011 145.564 231.117 155.66C245.22 171.3 265.061 175.974 287.028 177.643C318.525 180.035 336.812 161.242 360.452 147.209C386.86 131.531 414.015 117.232 446.93 114.69C513.941 109.51 573.768 150.339 597.829 210.438C611.401 244.322 637.343 263.908 677.817 258.335C703.879 254.75 725.486 242.275 746.077 230.655C780.569 211.171 818.745 192.211 860.673 195.857C948.579 203.548 970.409 313.798 1035.97 354.263C1066.31 372.986 1101.14 380.183 1136 390.023C1147.21 393.158 1179.72 398.203 1179.45 414.605" stroke="#E89933" stroke-width="0.25" stroke-miterlimit="10" stroke-linecap="round" stroke-linejoin="round"/>
<path d="M-57.9804 14.948C2.95122 -0.744417 72.6421 5.31821 130.04 41.9735C162.874 62.943 177.94 93.2504 199.114 121.049C207.83 132.498 216.641 141.61 226.797 150.716C242.161 164.494 263.024 168.497 285.71 170.933C317.228 174.31 335.099 158.453 358.095 146.616C383.803 133.376 410.184 121.21 442.954 119.298C507.899 115.518 564.92 154.62 590.63 211.01C605.497 243.615 633.861 261.179 675.126 256.195C702.813 252.847 725.213 244.317 746.602 234.359C781.282 218.204 818.661 200.119 860.446 203.718C946.143 211.166 967.545 316.194 1032.58 352.327C1063.91 369.738 1100.84 375.873 1136.89 386.195C1148.13 389.415 1181.62 395.004 1181.07 411.578" stroke="#E2943D" stroke-width="0.25" stroke-miterlimit="10" stroke-linecap="round" stroke-linejoin="round"/>
<path d="M-62.7032 12.7594C-4.54723 -0.247979 63.2193 6.77599 118.915 42.796C151.631 63.9664 167.991 94.046 190.744 119.627C200.682 130.805 211.226 137.627 222.472 145.75C238.984 157.677 260.974 160.987 284.388 164.193C315.925 168.514 333.349 155.647 355.724 145.99C380.721 135.197 406.321 125.141 438.951 123.881C501.82 121.448 556.208 158.927 583.415 211.558C599.653 242.969 630.358 258.456 672.43 254.034C701.747 250.944 724.8 246.353 747.12 238.041C781.802 225.131 818.569 208.015 860.203 211.557C943.682 218.76 964.861 318.431 1029.16 350.367C1061.59 366.473 1100.52 371.49 1137.76 382.352C1149.03 385.639 1183.5 391.789 1182.67 408.536" stroke="#DC9048" stroke-width="0.25" stroke-miterlimit="10" stroke-linecap="round" stroke-linejoin="round"/>
<path d="M-67.4162 10.5725C-12.0341 0.240464 53.8045 8.24532 107.797 43.6302C140.406 65.0031 158.266 94.7815 182.382 118.217C193.62 129.138 205.747 133.663 218.164 140.798C235.728 150.896 258.791 154.534 283.083 157.467C314.831 161.3 331.608 152.852 353.38 145.379C377.643 137.049 402.478 129.076 434.988 128.471C495.761 127.332 547.735 163.256 576.231 212.102C593.923 242.415 626.9 255.761 669.755 251.866C700.708 249.056 724.269 248.368 747.669 241.719C782.155 231.926 818.508 215.906 860.003 219.382C941.261 226.35 962.43 320.502 1025.79 348.406C1059.41 363.213 1100.25 367.115 1138.68 378.498C1149.98 381.851 1185.42 388.565 1184.33 405.485" stroke="#D68B52" stroke-width="0.25" stroke-miterlimit="10" stroke-linecap="round" stroke-linejoin="round"/>
<path d="M-72.1408 8.3935C-19.5441 0.744824 44.3764 9.73237 96.6701 44.4625C129.169 66.0477 148.727 95.4397 174.01 116.805C186.621 127.462 200.203 129.727 213.837 135.842C232.382 144.17 256.672 147.173 281.749 150.734C313.573 155.259 329.813 150.067 350.997 144.761C374.499 138.878 398.576 133 430.974 133.061C489.628 133.172 539.421 167.595 569.005 212.658C588.238 241.95 623.406 253.1 667.037 249.711C699.626 247.18 723.584 250.345 748.166 245.408C782.296 238.551 818.397 223.799 859.739 227.226C938.778 233.95 960.11 322.412 1022.35 346.452C1057.24 359.936 1099.91 362.728 1139.51 374.659C1150.85 378.07 1187.26 385.355 1185.9 402.447" stroke="#D0875C" stroke-width="0.25" stroke-miterlimit="10" stroke-linecap="round" stroke-linejoin="round"/>
<path d="M-76.8538 6.20663C-27.0328 1.24308 34.9464 11.2293 85.5428 45.2948C117.932 67.0924 139.34 95.9845 165.638 115.393C179.677 125.756 194.631 125.827 209.518 130.897C228.981 137.524 254.839 138.368 280.431 144.025C311.998 150.999 327.998 147.289 348.64 144.167C371.349 140.737 394.705 136.919 426.998 137.669C483.532 138.978 531.381 171.934 561.806 213.23C582.681 241.559 619.935 250.474 664.346 247.571C698.569 245.34 722.829 252.258 748.7 249.114C782.344 245.018 818.321 231.718 859.521 235.09C936.351 241.57 958.005 324.139 1018.95 344.516C1055.21 356.645 1099.62 358.371 1140.4 370.831C1151.78 374.31 1189.16 382.165 1187.53 399.42" stroke="#CA8266" stroke-width="0.25" stroke-miterlimit="10" stroke-linecap="round" stroke-linejoin="round"/>
<path d="M-81.5766 4.01766C-34.541 1.73743 25.5048 12.7339 74.4173 46.1171C106.685 68.135 130.086 96.4117 157.268 113.971C172.794 124 189.91 119.323 205.193 125.931C224.416 134.252 252.783 130.776 279.109 137.285C310.695 145.091 326.16 144.467 346.278 143.543C368.159 142.537 390.812 140.794 423.017 142.245C477.412 144.698 523.581 176.175 554.614 213.762C577.244 241.17 616.48 247.819 661.661 245.402C697.525 243.481 722.018 254.04 749.229 252.788C782.303 251.255 818.242 239.596 859.29 242.919C933.901 249.155 953.667 342.03 1015.55 342.559C1054.75 342.896 1099.33 353.981 1141.29 366.981C1152.7 370.516 1191.05 378.944 1189.14 396.371" stroke="#C47E70" stroke-width="0.25" stroke-miterlimit="10" stroke-linecap="round" stroke-linejoin="round"/>
<path d="M-86.2994 1.82887C-42.0377 2.22397 16.05 14.2564 63.2918 46.9395C95.4366 69.1876 120.904 96.7209 148.898 112.55C165.959 122.192 184.1 115.348 200.877 120.967C221.254 127.791 250.741 123.166 277.796 130.547C309.396 139.163 324.297 141.619 343.917 142.918C364.944 144.313 386.911 144.658 419.024 146.83C471.27 150.365 522.948 175.048 547.399 214.31C576.46 235.741 612.998 245.201 658.965 243.24C696.467 241.64 722.461 265.086 749.748 256.47C780.714 246.69 818.161 247.494 859.047 250.757C931.437 256.759 952.66 343.998 1012.13 340.599C1052.36 338.295 1099.01 349.577 1142.16 363.138C1153.6 366.74 1192.93 375.73 1190.75 393.331" stroke="#BE797B" stroke-width="0.25" stroke-miterlimit="10" stroke-linecap="round" stroke-linejoin="round"/>
<path d="M-91.0124 -0.358311C-49.5263 2.72191 6.59327 15.7885 52.1645 47.7716C84.1863 70.2498 111.777 96.9491 140.526 111.138C159.146 120.328 177.794 114.405 196.55 116.011C218.648 117.905 248.698 115.556 276.47 123.826C308.096 133.235 322.157 140.611 341.551 142.313C361.981 144.104 383.002 148.51 415.039 151.426C465.136 155.992 515.473 178.671 540.202 214.872C571.358 234.574 609.532 242.606 656.276 241.09C695.426 239.822 720.978 267.219 750.285 260.156C781.387 252.674 818.088 255.393 858.833 258.601C929.015 264.359 951.801 345.326 1008.75 338.645C1049.96 333.814 1098.73 345.181 1143.05 359.29C1154.54 362.95 1194.83 372.511 1192.38 390.293" stroke="#B87585" stroke-width="0.25" stroke-miterlimit="10" stroke-linecap="round" stroke-linejoin="round"/>
<path d="M-95.737 -2.53695C-57.0363 3.22659 -2.87678 17.3389 41.0372 48.6042C72.9342 71.3223 102.677 97.0819 132.164 109.728C152.376 118.391 172.207 110.704 192.232 111.057C215.219 111.467 246.659 107.927 275.156 117.097C306.812 127.281 320.523 135.845 339.186 141.708C358.48 147.768 379.089 152.331 411.053 156.032C458.992 161.567 507.999 182.295 532.995 215.432C566.236 233.404 606.064 240.02 653.578 238.939C694.363 238.011 719.411 268.933 750.801 263.849C782.055 258.789 817.996 263.29 858.589 266.449C926.551 271.962 950.931 346.046 1005.32 336.705C1047.53 329.457 1098.43 340.8 1143.91 355.466C1155.43 359.182 1196.7 369.316 1193.97 387.271" stroke="#B2708F" stroke-width="0.25" stroke-miterlimit="10" stroke-linecap="round" stroke-linejoin="round"/>
<path d="M-100.45 -4.72401C-64.525 3.72466 -12.337 18.8908 29.9196 49.4382C61.6901 72.4059 93.6023 97.1379 123.804 108.308C145.619 116.386 166.625 107.024 187.925 106.105C211.812 105.073 244.642 100.292 273.851 110.371C305.541 121.308 318.66 132.886 336.843 141.097C355.278 149.415 374.883 160.181 407.08 160.62C453.309 161.254 500.535 185.91 525.81 215.985C561.146 232.229 602.606 237.437 650.901 236.782C693.328 236.214 717.874 270.208 751.339 267.535C782.742 265.029 817.924 271.189 858.375 274.292C924.119 279.561 950.043 346.207 1001.94 334.752C1045.13 325.219 1098.15 336.394 1144.82 351.62C1156.38 355.394 1198.61 366.099 1195.62 384.228" stroke="#AD6C99" stroke-width="0.25" stroke-miterlimit="10" stroke-linecap="round" stroke-linejoin="round"/>
<path d="M-105.173 -6.91266C-72.0332 4.21933 -21.8186 20.449 18.7941 50.2608C50.4282 73.4764 84.5122 97.1104 115.434 106.886C138.856 114.298 161.06 103.368 183.599 101.139C208.423 98.6917 242.61 92.6235 272.529 103.63C304.264 115.314 316.806 129.879 334.471 140.471C352.074 151.021 370.845 164.019 403.089 165.195C447.299 166.813 493.056 189.503 518.597 216.524C556.028 231.039 599.129 234.85 648.194 234.619C692.263 234.412 716.406 271.051 751.857 271.217C783.371 271.36 817.832 279.085 858.132 282.13C921.655 287.164 948.99 345.883 998.521 332.791C1042.74 321.112 1097.84 331.981 1145.69 347.777C1157.28 351.609 1200.47 362.893 1197.22 381.186" stroke="#A767A3" stroke-width="0.25" stroke-miterlimit="10" stroke-linecap="round" stroke-linejoin="round"/>
<path d="M-109.886 -9.09984C-79.5201 4.70749 -31.3038 22.0264 7.6686 51.083C39.153 74.5643 74.343 103.747 107.064 105.464C132.938 106.828 155.51 99.7337 179.284 96.1746C205.061 92.3256 240.602 84.9389 271.214 96.9016C302.997 109.321 315.004 126.861 332.118 139.858C348.923 152.607 366.834 167.761 399.114 169.792C441.303 172.456 485.591 193.128 511.409 217.087C550.936 229.874 595.675 232.297 645.525 232.472C691.234 232.637 717.265 262.113 752.403 274.915C782.179 285.764 817.77 286.986 857.927 289.985C919.24 294.776 945.715 330.71 995.136 330.858C1042.46 330.994 1097.57 327.596 1146.58 343.949C1158.22 347.828 1202.37 359.694 1198.85 378.159" stroke="#A163AD" stroke-width="0.25" stroke-miterlimit="10" stroke-linecap="round" stroke-linejoin="round"/>
<path d="M-114.609 -11.2885C-87.0186 5.20395 -40.8006 23.6121 -3.45871 51.9154C27.876 75.6624 65.4993 102.926 98.6925 104.053C125.95 104.982 149.976 96.1232 174.957 91.2187C201.708 85.9715 238.593 77.2546 269.89 90.1713C301.733 103.309 313.213 123.835 329.754 139.243C345.793 154.196 362.82 171.362 395.122 174.377C435.281 178.134 478.11 196.73 504.196 217.626C545.81 228.672 592.196 229.719 642.821 230.299C690.169 230.835 716.691 263.039 752.923 278.587C782.361 291.224 817.68 294.873 857.685 297.813C916.78 302.36 943.998 330.982 991.727 328.889C1040.66 326.744 1097.28 323.167 1147.46 340.088C1159.13 344.023 1204.26 356.462 1200.47 375.1" stroke="#9B5EB8" stroke-width="0.25" stroke-miterlimit="10" stroke-linecap="round" stroke-linejoin="round"/>
<path d="M-119.324 -13.4659C-94.5188 5.70986 -50.3009 25.2171 -14.5762 52.7492C16.6052 76.7814 56.5836 102 90.3305 102.642C118.991 103.192 144.47 92.5275 170.647 86.2758C198.39 79.6437 236.595 69.5717 268.584 83.454C300.489 97.3006 311.493 120.811 327.399 138.64C342.711 155.794 359.593 170.882 391.145 178.984C428.373 188.541 470.633 200.363 497.007 218.199C540.716 227.517 588.739 227.186 640.14 228.161C689.125 229.088 716.247 263.917 753.457 282.293C782.631 296.7 817.604 302.792 857.468 305.676C914.344 309.978 942.247 331.166 988.332 326.954C1038.83 322.346 1096.99 318.769 1148.35 336.269C1160.06 340.263 1206.15 353.272 1202.09 372.083" stroke="#955AC2" stroke-width="0.25" stroke-miterlimit="10" stroke-linecap="round" stroke-linejoin="round"/>
<path d="M-124.046 -15.6546C-102.017 6.20632 -59.8129 26.8304 -25.7133 53.5798C5.29343 77.9034 47.5632 100.985 81.949 101.229C112.025 101.441 138.953 88.9402 166.31 81.3181C195.063 73.3047 234.592 61.8581 267.248 76.7317C299.225 91.2888 309.762 117.796 325.024 138.033C339.629 157.393 355.725 174.458 387.151 183.579C422.291 193.773 459.335 218.96 489.79 218.757C536.213 218.446 585.252 224.648 637.432 226.008C688.053 227.325 715.868 264.717 753.963 285.983C782.946 302.155 817.512 310.688 857.215 313.512C911.872 317.57 940.395 331.231 984.91 325.003C1036.89 317.727 1096.69 314.348 1149.21 332.426C1160.97 336.467 1208.03 350.058 1203.69 369.041" stroke="#8F55CC" stroke-width="0.25" stroke-miterlimit="10" stroke-linecap="round" stroke-linejoin="round"/>
<path d="M-128.759 -17.8413C-109.504 6.69496 -69.3345 28.442 -36.829 54.4043C-5.9987 79.0291 38.6578 96.2519 73.5888 99.8092C104.928 103.002 133.476 85.3504 162.004 76.3561C191.788 66.9651 232.62 54.1402 265.945 69.9953C297.996 85.2532 308.081 114.78 322.672 137.411C336.596 159 351.9 177.962 383.168 188.165C416.24 198.951 453.249 219.968 482.597 219.299C530.839 218.21 581.789 222.094 634.747 223.839C687.003 225.557 715.6 265.467 754.503 289.66C783.363 307.607 817.441 318.578 856.994 321.345C909.44 325.169 938.467 331.222 981.511 323.037C1034.88 312.892 1096.41 309.911 1150.09 328.575C1161.88 332.674 1209.91 346.845 1205.31 365.993" stroke="#8951D6" stroke-width="0.25" stroke-miterlimit="10" stroke-linecap="round" stroke-linejoin="round"/>
<path d="M-133.482 -20.0304C-117.012 7.18915 -78.8696 30.0708 -47.9564 55.2362C-17.3158 80.18 29.3785 95.9872 65.217 98.397C98.0906 100.607 128.009 81.7618 157.677 71.3997C188.511 60.6346 230.64 46.4101 264.611 63.2627C296.749 79.2035 306.386 111.781 320.299 136.794C333.551 160.615 348.087 181.397 379.175 192.749C410.215 204.093 446.867 220.709 475.382 219.847C525.513 218.326 578.302 219.555 632.039 221.685C685.928 223.813 715.384 266.205 755.009 293.35C783.814 313.086 817.338 326.482 856.749 329.192C906.976 332.771 936.405 331.168 978.098 321.088C1032.73 307.89 1096.15 305.386 1150.97 324.733C1162.8 328.861 1211.79 343.632 1206.92 362.952" stroke="#834CE0" stroke-width="0.25" stroke-miterlimit="10" stroke-linecap="round" stroke-linejoin="round"/>
<path d="M-138.195 -22.2171C-124.501 7.68756 -88.3966 31.7118 -59.0819 56.059C-28.6445 81.3394 20.0637 95.6964 56.847 96.9756C91.2307 98.169 122.542 78.1738 153.35 66.4439C185.235 54.2949 228.661 38.6709 263.285 56.5424C295.518 73.1777 304.708 108.806 317.924 136.188C330.511 162.262 344.328 184.761 375.181 197.344C404.228 209.192 440.164 221.28 468.175 220.407C520.287 218.774 574.814 217.027 629.35 219.536C684.88 222.085 715.269 266.942 755.536 297.044C784.344 318.58 817.256 334.38 856.514 337.042C904.523 340.377 934.23 331.073 974.684 319.149C1030.45 302.702 1095.85 301.006 1151.84 320.911C1163.72 325.097 1213.67 340.44 1208.52 359.931" stroke="#7D48EB" stroke-width="0.25" stroke-miterlimit="10" stroke-linecap="round" stroke-linejoin="round"/>
<path d="M-142.92 -24.396C-132.011 8.19199 -97.9548 33.357 -70.2092 56.8913C-39.9981 82.5244 10.708 95.4081 48.485 95.5656C84.353 95.717 117.093 74.5989 149.042 61.4915C181.999 47.9622 226.724 30.9288 261.981 49.8156C294.31 67.1356 303.059 105.836 315.58 135.577C327.52 163.917 340.665 188.042 371.206 201.942C398.315 214.273 433.169 219.524 460.98 220.959C515.078 223.762 571.341 214.582 626.664 217.376C683.819 220.426 715.228 267.662 756.073 300.73C784.941 324.096 817.184 342.279 856.301 344.885C902.1 347.977 931.945 330.968 971.303 317.196C1028.03 297.348 1095.58 296.6 1152.75 317.065C1164.65 321.307 1215.58 337.223 1210.17 356.888" stroke="#7743F5" stroke-width="0.25" stroke-miterlimit="10" stroke-linecap="round" stroke-linejoin="round"/>
<path d="M-147.633 -26.5831C-139.5 8.69004 -107.515 35.0118 -81.3267 57.7253C-51.3552 83.7288 1.32483 95.1044 40.1248 94.1456C77.463 93.2222 111.665 71.0177 144.727 56.5274C178.765 41.6196 224.771 23.1635 260.668 43.0771C293.106 61.0739 301.4 102.864 313.229 134.954C324.507 165.578 337.071 191.224 367.235 206.52C392.46 219.315 425.787 222.033 453.796 221.503C510.056 220.447 567.888 211.969 623.988 215.209C682.778 218.608 715.248 268.383 756.613 304.406C785.575 329.629 817.113 350.169 856.079 352.717C899.658 355.574 929.512 330.845 967.903 315.229C1025.43 291.828 1095.29 292.193 1153.62 313.204C1165.57 317.503 1217.47 333.99 1211.78 353.828" stroke="#713FFF" stroke-width="0.25" stroke-miterlimit="10" stroke-linecap="round" stroke-linejoin="round"/>
<path d="M-149.188 -19.0863C-138.993 15.6346 -106.572 39.9645 -79.4764 60.4795C-48.6161 83.8364 3.4953 92.8543 42.9457 92.2066C53.1866 92.0204 63.2177 90.4417 73.0969 88.0368C99.3861 81.6136 123.582 69.1276 147.012 60.6043C153.616 58.2059 160.656 55.6853 167.969 53.3359C197.401 43.8199 231.792 38.4055 261.284 53.7303C294.197 70.8439 304.047 109.544 316.994 138.837C321.838 149.911 326.838 160.245 332.934 169.557C342.271 183.798 354.379 195.656 372.737 203.9C398.259 215.354 431.723 217.319 460.072 216.922C463.922 216.869 467.777 216.787 471.644 216.697C510.608 215.778 549.859 213.295 587.819 214.386C601.664 214.769 615.37 215.642 628.97 217.142C654.326 219.956 674.672 231.413 693.23 246.514C716.516 265.594 737.272 289.829 760.781 309.071C777.465 322.757 795.023 334.492 814.051 342.11C828.684 347.963 844.145 351.663 860.911 351.995C875.948 352.324 889.348 349.401 902.043 344.753C925.567 336.217 946.644 321.391 971.386 310.672C973.724 309.656 976.087 308.673 978.47 307.746C1004.8 297.358 1034.2 293.072 1062.18 294.324C1078.06 295.039 1093.45 297.273 1109.39 300.474C1125.13 303.63 1141 307.829 1155.95 313.043C1161.66 315.038 1175.12 319.304 1187.63 324.606C1203.33 331.251 1218.03 339.359 1215.06 349.173" stroke="#7042FF" stroke-width="0.3095" stroke-miterlimit="10" stroke-linecap="round" stroke-linejoin="round"/>
<path d="M-150.744 -11.5799C-138.496 22.5773 -105.661 44.9214 -77.6262 63.2336C-45.9178 83.9465 5.66583 90.604 45.7764 90.2692C56.0653 90.1525 66.1823 88.8219 76.1837 86.8537C102.751 81.5627 126.496 71.2073 149.294 64.7005C155.721 62.8763 162.551 60.9539 169.641 59.1598C198.147 51.9401 231.664 49.7004 261.914 64.4163C295.301 80.6565 306.823 116.186 320.776 142.743C326.044 152.773 331.345 162.121 337.667 170.535C347.369 183.388 359.795 194.061 378.258 201.293C404.077 211.397 437.687 212.621 466.367 212.345C470.254 212.309 474.143 212.264 478.044 212.21C517.403 211.727 556.723 210.965 593.874 214.1C607.422 215.227 620.742 216.878 633.95 219.085C658.514 223.189 678.311 235.384 696.557 251.085C719.663 270.981 740.89 295.292 764.944 313.764C781.972 326.897 799.913 337.641 819.13 344.01C833.831 348.885 849.185 351.737 865.746 351.304C880.573 350.967 893.795 347.467 906.369 342.382C929.531 333.001 950.371 317.485 974.882 306.149C977.212 305.07 979.564 304.035 981.94 303.035C1008.33 291.962 1038.53 288.195 1065.76 291.1C1081.17 292.74 1095.59 295.976 1111.46 299.742C1127.03 303.431 1143.21 307.81 1158.29 312.915C1164.41 314.988 1178.27 319.264 1190.84 323.959C1206.48 329.806 1221.13 335.996 1218.36 344.543" stroke="#6E44FF" stroke-width="0.369" stroke-miterlimit="10" stroke-linecap="round" stroke-linejoin="round"/>
<path d="M-152.299 -4.08342C-137.989 29.5216 -104.77 49.8746 -75.7759 65.9874C-43.2506 84.0607 7.83629 88.3534 48.5973 88.3298C58.9438 88.2843 69.1468 87.2019 79.2623 85.6588C106.097 81.4982 129.393 73.2637 151.579 68.777C157.831 67.5269 164.452 66.1928 171.307 64.9621C198.875 59.996 231.516 60.9916 262.53 75.0691C296.388 90.4457 309.51 122.812 324.553 146.618C330.235 155.601 335.836 163.974 342.394 171.481C352.462 182.946 365.206 192.434 383.773 198.654C409.91 207.412 443.637 207.889 472.656 207.746C476.581 207.727 480.515 207.71 484.448 207.703C524.204 207.647 563.593 208.605 599.931 213.804C613.181 215.675 626.118 218.095 638.934 221.008C662.703 226.412 681.938 239.363 699.888 255.626C722.796 276.385 744.525 300.717 769.112 318.428C786.483 331.018 804.799 340.759 824.205 345.879C838.963 349.774 854.215 351.749 870.57 350.57C885.182 349.527 898.236 345.511 910.673 339.957C933.485 329.784 954.073 313.494 978.358 301.57C980.679 300.429 983.022 299.332 985.388 298.28C1011.84 286.49 1042.82 283.27 1069.33 287.832C1084.27 290.397 1097.72 294.639 1113.51 298.966C1128.9 303.178 1145.4 307.736 1160.6 312.733C1167.16 314.894 1181.4 319.17 1194.02 323.258C1209.59 328.304 1224.2 332.576 1221.65 339.859" stroke="#6D47FF" stroke-width="0.4286" stroke-miterlimit="10" stroke-linecap="round" stroke-linejoin="round"/>
<path d="M-153.854 3.41336C-137.482 36.4662 -103.919 54.8307 -73.9256 68.7416C-40.6145 84.1797 9.9987 86.2029 51.428 86.3925C61.8287 86.4378 72.1194 85.5938 82.3491 84.4759C109.464 81.4883 132.307 75.3435 153.862 72.8637C159.938 72.1877 166.35 71.4419 172.971 70.7746C199.599 68.0718 231.367 72.2928 263.144 85.7321C297.452 100.251 312.197 129.439 328.319 150.501C334.393 158.445 340.326 165.837 347.109 172.446C357.533 182.52 370.606 190.816 389.266 196.032C415.732 203.436 449.563 203.174 478.934 203.156C482.896 203.154 486.866 203.164 490.842 203.194C531.005 203.566 570.451 206.253 605.98 213.497C618.922 216.11 631.474 219.308 643.908 222.929C666.877 229.612 685.553 243.35 703.209 260.175C725.907 281.805 748.138 306.149 773.26 323.098C790.974 335.135 809.662 343.893 829.267 347.756C844.073 350.68 859.23 351.788 875.38 349.854C889.784 348.127 902.664 343.573 914.972 337.561C937.434 326.596 957.771 309.523 981.829 297.022C984.141 295.818 986.475 294.659 988.83 293.554C1015.33 281.046 1047.1 278.375 1072.89 284.583C1087.37 288.073 1099.84 293.308 1115.55 298.207C1130.76 302.943 1147.58 307.671 1162.9 312.577C1169.88 314.816 1184.49 319.098 1197.17 322.583C1212.68 326.848 1227.26 329.185 1224.9 335.201" stroke="#6B49FF" stroke-width="0.4881" stroke-miterlimit="10" stroke-linecap="round" stroke-linejoin="round"/>
<path d="M-155.41 10.9198C-136.987 43.4187 -103.103 59.8107 -72.0753 71.4957C-38.0132 84.3226 12.1674 83.9624 54.2489 84.4534C64.7073 84.5698 75.0723 83.982 85.4277 83.2812C112.819 81.4356 135.203 77.4098 156.145 76.9502C162.047 76.8385 168.237 76.6988 174.646 76.579C200.317 76.1262 231.217 83.594 263.778 96.3985C298.534 110.07 314.894 136.067 332.103 154.397C338.571 161.292 344.819 167.731 351.853 173.416C362.617 182.127 376.047 189.195 394.796 193.427C421.592 199.466 455.525 198.485 485.239 198.581C489.238 198.596 493.243 198.632 497.251 198.709C537.81 199.517 577.334 203.926 612.043 213.223C624.689 216.57 636.846 220.544 648.898 224.874C671.057 232.833 689.173 247.368 706.547 264.738C729.035 287.239 751.809 311.54 777.434 327.784C795.507 339.239 814.531 347.048 834.358 349.648C849.21 351.6 864.271 351.852 880.227 349.155C894.421 346.753 907.129 341.652 919.309 335.181C941.419 323.435 961.507 305.568 985.336 292.49C987.64 291.224 989.964 290.012 992.312 288.836C1018.87 275.6 1051.42 273.465 1076.49 281.352C1090.49 285.755 1102 291.986 1117.65 297.459C1132.69 302.719 1149.82 307.605 1165.26 312.433C1172.67 314.751 1187.65 319.051 1200.39 321.92C1215.84 325.395 1230.38 325.794 1228.23 330.555" stroke="#6A4CFF" stroke-width="0.5476" stroke-miterlimit="10" stroke-linecap="round" stroke-linejoin="round"/>
<path d="M-156.965 18.4165C-136.48 50.3632 -102.31 64.8066 -70.2251 74.2498C-35.4466 84.4894 14.3343 81.7317 57.0815 82.5063C67.586 82.7019 78.0485 82.3543 88.5181 82.0786C116.177 81.3634 138.119 79.4193 158.432 81.0171C164.17 81.4717 170.14 81.9283 176.314 82.3718C201.037 84.1708 231.058 94.8934 264.395 107.042C299.598 119.876 317.548 142.657 335.882 158.263C342.744 164.107 349.322 169.577 356.583 174.352C367.71 181.686 381.384 188.141 400.314 190.779C427.592 194.572 461.487 193.746 491.53 193.973C495.566 194.004 499.617 194.069 503.657 194.192C544.612 195.427 584.206 201.556 618.113 212.91C630.461 217 642.225 221.742 653.893 226.789C675.243 236.025 692.81 251.348 709.889 269.281C732.157 292.651 755.446 316.956 781.612 332.45C800.03 343.352 819.404 350.184 839.45 351.531C854.337 352.519 869.324 351.909 885.067 348.445C899.041 345.365 911.586 339.719 923.629 332.779C945.389 320.241 965.217 301.589 988.828 287.935C991.123 286.607 993.428 285.331 995.775 284.104C1022.38 270.14 1055.7 268.541 1080.07 278.096C1093.6 283.403 1104.13 290.649 1119.71 296.695C1134.57 302.468 1152.03 307.524 1167.57 312.261C1175.42 314.648 1190.86 318.425 1203.56 321.227C1218.79 324.582 1233.45 322.384 1231.5 325.889" stroke="#684EFF" stroke-width="0.6071" stroke-miterlimit="10" stroke-linecap="round" stroke-linejoin="round"/>
<path d="M-158.522 25.9234C-135.985 57.3162 -101.532 69.8306 -68.3766 77.0141C-32.8969 84.694 16.5013 79.5014 59.9006 80.5774C70.4628 80.8442 81.0015 80.743 91.5932 80.904C119.52 81.3192 141.041 81.4 160.704 85.1121C166.262 86.1604 172.017 87.1839 177.967 88.1926C201.722 92.2399 230.884 106.221 264.998 117.713C300.636 129.717 320.175 149.283 339.636 162.154C346.883 166.948 353.8 171.448 361.286 175.325C372.779 181.27 386.896 185.907 405.795 188.166C433.287 191.452 467.402 189.039 497.786 189.389C501.86 189.437 505.946 189.529 510.03 189.691C551.39 191.363 591.043 199.211 624.139 212.619C636.189 217.453 647.552 222.95 658.845 228.717C679.389 239.21 696.39 255.36 713.19 273.827C735.244 298.088 759.05 322.386 785.752 337.109C804.513 347.457 824.233 353.343 844.505 353.397C859.423 353.441 874.33 351.946 889.871 347.708C903.634 343.963 916.005 337.77 927.923 330.362C949.338 317.054 968.911 297.587 992.293 283.365C994.579 281.975 996.875 280.637 999.212 279.357C1025.87 264.665 1059.97 263.582 1083.62 274.837C1096.68 281.047 1106.25 289.289 1121.75 295.927C1136.43 302.212 1154.22 307.431 1169.88 312.097C1178.16 314.563 1193.84 318.911 1206.73 320.544C1222 322.472 1236.51 318.985 1234.77 321.223" stroke="#6751FF" stroke-width="0.6667" stroke-miterlimit="10" stroke-linecap="round" stroke-linejoin="round"/>
<path d="M-160.067 33.4217C-135.468 64.2622 -100.767 74.8716 -66.5147 79.76C-30.3606 84.9157 18.6815 77.2527 62.7428 78.6318C73.353 78.968 83.9874 79.1167 94.6932 79.703C122.888 81.2486 143.95 83.5595 163.009 89.1922C168.396 90.7852 173.927 92.4247 179.652 93.9986C202.442 100.284 230.729 117.551 265.643 128.371C301.714 139.555 322.813 155.9 343.431 166.042C351.051 169.792 358.319 173.316 366.031 176.285C377.888 180.851 392.352 184.258 411.328 185.541C439.176 187.437 473.369 184.321 504.103 184.805C508.216 184.861 512.336 184.989 516.451 185.197C558.208 187.296 597.928 196.874 630.216 212.327C641.96 217.893 652.939 224.159 663.847 230.653C683.584 242.403 700.022 259.369 716.537 278.392C738.37 303.531 762.691 327.833 789.926 341.794C809.031 351.589 829.086 356.525 849.585 355.287C864.535 354.387 879.371 352.01 894.708 347.007C908.261 342.587 920.458 335.857 932.239 327.979C953.313 313.891 972.617 293.627 995.771 278.828C998.039 277.374 1000.34 275.975 1002.66 274.633C1029.37 259.211 1064.25 258.636 1087.2 271.6C1099.77 278.703 1108.39 287.961 1123.82 295.183C1138.32 301.972 1156.43 307.361 1172.21 311.948C1180.92 314.483 1196.95 318.874 1209.92 319.876C1225.11 321.05 1239.6 315.599 1238.07 316.571" stroke="#6553FF" stroke-width="0.7262" stroke-miterlimit="10" stroke-linecap="round" stroke-linejoin="round"/>
<path d="M-161.622 40.9185C-134.961 71.2068 -100.01 79.9521 -64.6644 82.5142C-27.8332 85.1866 20.852 75.0026 65.5638 76.6928C76.2317 77.1002 86.9422 77.4953 97.7702 78.5182C126.243 81.196 146.856 85.6278 165.282 93.2771C170.494 95.4442 175.808 97.6604 181.316 99.8111C203.142 108.325 230.56 128.899 266.256 139.044C302.758 149.418 325.405 162.549 347.195 169.935C355.178 172.64 362.806 175.189 370.756 177.251C382.978 180.429 397.79 182.596 416.839 182.932C445.036 183.417 479.313 179.619 510.389 180.226C514.539 180.299 518.702 180.465 522.851 180.71C565.005 183.235 604.794 194.534 636.269 212.051C647.715 218.361 658.304 225.384 668.827 232.596C687.762 245.583 703.63 263.396 719.866 282.953C741.475 308.981 766.314 333.266 794.091 346.478C813.538 355.729 833.939 359.718 854.666 357.178C869.655 355.345 884.403 352.073 899.536 346.305C912.879 341.21 924.912 333.944 936.556 325.597C957.286 310.738 976.326 289.657 999.26 274.293C1001.52 272.776 1003.81 271.316 1006.12 269.921C1032.88 253.761 1068.54 253.692 1090.77 268.364C1102.87 276.35 1110.52 286.624 1125.87 294.438C1140.2 301.731 1158.64 307.281 1174.52 311.805C1183.66 314.409 1200.05 318.845 1213.1 319.214C1228.19 319.633 1242.68 312.211 1241.34 311.926" stroke="#6456FF" stroke-width="0.7857" stroke-miterlimit="10" stroke-linecap="round" stroke-linejoin="round"/>
<path d="M-163.178 48.4249C-134.466 78.1593 -99.2601 85.0716 -62.816 85.278C-25.3112 85.4867 23.0207 72.762 68.3927 74.7652C79.1102 75.2322 89.9147 75.887 100.867 77.3369C129.607 81.1451 149.779 87.7092 167.575 97.3653C172.621 100.108 177.707 102.909 182.99 105.625C203.852 116.368 230.392 140.248 266.88 149.709C303.811 159.282 328.212 168.247 350.98 173.822C359.251 175.842 367.327 177.048 375.492 178.21C388.079 179.999 403.24 180.926 422.363 180.305C450.921 179.371 485.279 174.91 516.686 175.639C520.883 175.731 525.072 175.922 529.265 176.205C571.823 179.168 611.671 192.186 642.347 211.749C653.496 218.803 663.695 226.573 673.83 234.523C691.962 248.748 707.251 267.404 723.215 287.507C744.601 314.424 769.957 338.703 798.277 351.156C818.068 359.853 838.809 362.924 859.768 359.062C874.787 356.294 889.463 352.141 904.387 345.586C917.509 339.824 929.378 332.013 940.888 323.187C961.272 307.567 980.041 285.649 1002.76 269.73C1005.01 268.151 1007.29 266.628 1009.6 265.181C1036.4 248.281 1072.85 248.7 1094.37 265.112C1106 273.983 1112.68 285.261 1127.96 293.679C1142.12 301.466 1160.88 307.185 1176.87 311.65C1186.45 314.323 1203.18 318.812 1216.31 318.54C1231.31 318.214 1245.78 308.818 1244.66 307.279" stroke="#6258FF" stroke-width="0.8452" stroke-miterlimit="10" stroke-linecap="round" stroke-linejoin="round"/>
<path d="M-164.733 55.9216C-133.959 85.1038 -98.502 90.2026 -60.9639 88.0223C-22.783 85.8082 25.193 70.502 71.2172 72.8065C81.9925 73.3447 92.8731 74.2459 103.947 76.1325C132.958 81.0613 152.686 89.7676 169.861 101.442C174.732 104.75 179.609 108.139 184.656 111.428C204.567 124.382 230.214 151.594 267.505 160.364C304.865 169.146 330.59 175.898 354.758 177.697C363.46 178.351 371.828 178.903 380.218 179.166C393.181 179.569 408.672 179.243 427.867 177.675C456.788 175.311 491.217 170.187 522.965 171.039C527.2 171.148 531.424 171.365 535.649 171.694C578.604 175.084 618.52 189.832 648.385 211.45C659.227 219.237 669.046 227.755 678.792 236.452C696.133 251.907 710.83 271.424 726.526 292.055C747.677 319.869 773.561 344.133 802.424 355.826C822.557 363.98 843.649 366.125 864.831 360.939C879.885 357.258 894.475 352.199 909.197 344.871C922.107 338.443 933.814 330.087 945.188 320.791C965.227 304.401 983.731 281.666 1006.23 265.181C1008.47 263.54 1010.73 261.963 1013.04 260.445C1039.89 242.806 1077.14 243.715 1097.93 261.862C1109.1 271.609 1114.81 283.912 1130 292.92C1143.99 301.211 1163.07 307.081 1179.16 311.483C1189.18 314.228 1206.24 318.787 1219.46 317.843C1234.36 316.791 1248.83 305.405 1247.91 302.599" stroke="#615BFF" stroke-width="0.9048" stroke-miterlimit="10" stroke-linecap="round" stroke-linejoin="round"/>
<path d="M-166.29 63.428C-133.454 92.0581 -97.7315 95.3764 -59.1154 90.7862C-20.2406 86.1626 27.352 68.2597 74.0462 70.8789C84.8791 71.4884 95.8359 72.636 107.034 74.9494C136.314 80.9988 155.6 91.8474 172.144 105.529C176.84 109.41 181.5 113.376 186.33 117.242C205.281 132.405 230.04 162.972 268.127 171.038C305.913 179.039 333.19 182.62 358.53 181.601C367.6 181.241 376.323 180.787 384.941 180.142C398.27 179.147 414.11 177.581 433.377 175.066C462.644 171.26 497.161 165.485 529.259 166.472C533.531 166.597 537.791 166.842 542.057 167.219C585.408 171.045 625.394 187.503 654.448 211.176C664.993 219.706 674.424 228.962 683.782 238.397C700.344 255.073 714.439 275.45 729.862 296.627C750.779 325.338 777.198 349.6 806.587 360.52C827.053 368.128 848.504 369.358 869.91 362.839C885 358.246 899.513 352.283 914.033 344.18C926.732 337.087 938.274 328.195 949.503 318.418C969.207 301.269 987.428 277.704 1009.72 260.656C1011.95 258.952 1014.2 257.313 1016.5 255.743C1043.38 237.362 1081.45 238.755 1101.51 258.638C1112.21 269.259 1116.95 282.567 1132.07 292.177C1145.88 300.952 1165.29 307.003 1181.49 311.344C1191.94 314.148 1209.36 318.781 1222.66 317.185C1237.46 315.409 1251.92 302.029 1251.21 297.958" stroke="#5F5DFF" stroke-width="0.9643" stroke-miterlimit="10" stroke-linecap="round" stroke-linejoin="round"/>
<path d="M-167.844 70.9251C-132.957 99.0012 -96.953 100.562 -57.2652 93.5407C-17.692 86.5387 29.5225 66.0098 76.8671 68.9401C87.748 69.6191 98.8004 71.0166 110.113 73.7552C139.661 80.935 158.496 93.9141 174.429 109.606C178.949 114.061 183.392 118.604 187.996 123.045C206.006 140.42 230.034 173.491 268.743 181.692C306.781 189.749 335.791 189.332 362.307 185.477C371.754 184.104 380.826 182.633 389.678 181.091C403.373 178.708 419.557 175.871 438.901 172.44C468.526 167.174 503.119 160.765 535.558 161.875C539.867 162.018 544.172 162.291 548.472 162.705C592.23 166.959 632.283 185.147 660.516 210.873C670.763 220.147 679.817 230.142 688.776 240.322C704.548 258.218 718.048 279.467 733.204 301.171C753.875 330.776 780.833 355.025 810.767 365.176C831.576 372.231 853.384 372.567 874.994 364.71C890.13 359.206 904.555 352.338 918.866 343.448C931.363 335.692 942.732 326.253 953.825 316.006C973.203 298.1 991.133 273.694 1013.21 256.091C1015.43 254.324 1017.68 252.624 1019.97 251.002C1046.9 231.871 1085.78 233.748 1105.08 255.382C1115.34 266.871 1119.1 281.203 1134.14 291.415C1147.78 300.684 1167.51 306.895 1183.83 311.186C1194.71 314.048 1212.47 318.776 1225.85 316.507C1240.57 314.018 1255.02 298.635 1254.51 293.297" stroke="#5E60FF" stroke-width="1.0238" stroke-miterlimit="10" stroke-linecap="round" stroke-linejoin="round"/>
<path d="M-169.399 78.4218C-132.45 105.946 -96.1568 105.761 -55.4131 96.285C-15.1221 86.9082 31.6965 63.74 79.6996 66.993C90.6399 67.7333 101.769 69.3772 113.201 72.5623C143.019 80.8627 161.375 96.0178 176.713 113.692C181.055 118.732 185.293 123.843 189.66 128.857C206.731 148.436 229.674 185.724 269.357 192.355C307.982 198.811 338.408 196.066 366.073 189.36C375.886 186.983 385.317 184.486 394.395 182.045C408.457 178.264 424.973 174.164 444.396 169.808C474.359 163.078 509.057 156.042 541.827 157.273C546.174 157.433 550.515 157.733 554.847 158.192C598.999 162.883 639.121 182.792 666.546 210.562C676.497 220.57 685.17 231.315 693.732 242.23C708.734 261.349 721.621 283.466 736.508 305.697C756.943 336.209 784.429 360.444 814.908 369.825C836.06 376.336 858.223 375.777 880.051 366.566C895.231 360.16 909.571 352.377 923.67 342.711C935.955 334.289 947.16 324.315 958.12 313.579C977.162 294.914 994.811 269.668 1016.68 251.511C1018.89 249.682 1021.13 247.92 1023.41 246.235C1050.37 226.363 1090.1 228.708 1108.65 252.093C1118.45 264.449 1121.24 279.795 1136.19 290.617C1149.67 300.372 1169.71 306.751 1186.13 310.981C1197.45 313.902 1215.55 318.724 1229.02 315.783C1243.65 312.581 1258.07 295.183 1257.77 288.588" stroke="#5C62FF" stroke-width="1.0833" stroke-miterlimit="10" stroke-linecap="round" stroke-linejoin="round"/>
<path d="M-170.956 85.9283C-131.955 112.898 -95.3464 110.992 -53.5646 99.0489C-12.5398 87.3205 33.8572 61.488 82.5187 65.0637C93.507 65.8734 104.735 67.7477 116.278 71.3775C146.388 80.7319 164.28 98.086 178.986 117.777C183.152 123.391 187.183 129.081 191.326 134.66C207.457 156.441 229.498 197.111 269.983 203.009C309.039 208.707 341.056 202.797 369.85 193.235C380.05 189.848 389.818 186.341 399.121 183.002C413.541 177.821 430.399 172.46 449.91 167.18C480.214 158.976 515.003 151.33 548.114 152.685C552.498 152.861 556.873 153.197 561.249 153.695C605.798 158.812 645.989 180.442 672.613 210.269C682.255 221.019 690.563 232.494 698.733 244.167C712.968 264.499 725.229 287.492 739.856 310.261C760.044 341.678 788.068 365.9 819.083 374.511C840.576 380.478 863.115 379.028 885.141 368.458C900.374 361.152 914.63 352.455 928.517 342.012C940.589 332.935 951.641 322.417 962.447 311.198C981.162 291.776 998.521 265.689 1020.18 246.978C1022.37 245.086 1024.6 243.26 1026.88 241.525C1053.88 220.901 1094.46 223.735 1112.23 248.869C1121.58 262.092 1123.4 278.452 1138.25 289.883C1151.56 300.123 1171.93 306.663 1188.46 310.851C1200.21 313.832 1218.67 318.759 1232.21 315.134C1246.76 311.23 1261.17 291.818 1261.06 283.966" stroke="#5B65FF" stroke-width="1.1429" stroke-miterlimit="10" stroke-linecap="round" stroke-linejoin="round"/>
<path d="M-172.511 93.4248C-131.448 119.843 -94.5146 116.218 -51.7143 101.803C-9.93608 87.7263 36.0295 59.2277 85.3494 63.1261C96.3972 63.9973 107.701 66.118 119.365 70.1942C149.754 80.671 167.186 100.154 181.269 121.863C185.262 128.041 189.086 134.31 192.99 140.472C208.192 164.458 229.321 208.508 270.595 213.682C310.072 218.628 343.7 209.546 373.622 197.139C384.208 192.751 394.309 188.194 403.843 183.978C418.614 177.375 435.823 170.765 455.42 164.571C486.055 154.891 520.948 146.628 554.41 148.107C558.831 148.301 563.251 148.665 567.659 149.21C612.615 154.755 652.863 178.113 678.676 209.994C688.021 221.488 695.96 233.705 703.723 246.111C717.197 267.669 728.826 291.526 743.194 314.824C763.126 347.144 791.689 371.404 823.257 379.196C845.074 384.667 868.007 382.278 890.231 370.35C905.518 362.145 919.677 352.54 933.355 341.311C945.225 331.57 956.113 320.508 966.773 308.817C985.163 288.638 1002.22 261.708 1023.68 242.444C1025.86 240.478 1028.08 238.602 1030.35 236.804C1057.39 215.43 1098.82 218.743 1115.82 245.636C1124.74 259.73 1125.56 277.1 1140.34 289.143C1153.49 299.869 1174.18 306.579 1190.8 310.713C1202.98 313.744 1221.8 318.797 1235.4 314.476C1249.87 309.881 1264.25 288.441 1264.35 279.325" stroke="#5967FF" stroke-width="1.2024" stroke-miterlimit="10" stroke-linecap="round" stroke-linejoin="round"/>
<path d="M-174.057 100.933C-130.932 126.789 -93.6668 121.466 -49.8543 104.559C-7.31286 88.1362 38.2197 56.8701 88.1819 61.1792C99.2812 62.1003 110.677 64.4905 122.455 68.9919C153.112 80.599 170.092 102.222 183.564 125.942C187.381 132.694 190.998 139.542 194.666 146.277C208.947 172.479 229.144 219.906 271.221 224.337C311.129 228.533 346.358 216.279 377.399 201.014C388.372 195.616 398.81 190.049 408.581 184.926C423.717 176.936 441.252 169.041 460.934 161.943C491.894 150.766 526.895 141.907 560.697 143.519C565.156 143.729 569.611 144.121 574.053 144.702C619.404 150.682 659.723 175.751 684.725 209.687C693.774 221.915 701.345 234.873 708.697 248.033C721.423 270.808 732.405 295.547 746.515 319.373C766.19 352.596 795.302 376.836 827.414 383.869C849.575 388.786 872.891 385.517 895.304 372.229C910.654 363.126 924.718 352.604 938.177 340.588C949.844 330.183 960.568 318.585 971.074 306.411C989.145 285.487 1005.91 257.703 1027.15 237.886C1029.32 235.858 1031.53 233.919 1033.79 232.069C1060.87 209.943 1103.17 213.749 1119.39 242.378C1127.87 257.341 1127.72 275.716 1142.39 288.377C1155.39 299.591 1176.39 306.458 1193.11 310.541C1205.73 313.621 1224.92 318.802 1238.58 313.785C1252.98 308.499 1267.33 285.034 1267.63 274.651" stroke="#586AFF" stroke-width="1.2619" stroke-miterlimit="10" stroke-linecap="round" stroke-linejoin="round"/>
<path d="M-175.612 108.43C-130.434 133.732 -92.8075 126.707 -48.0138 107.311C-4.69143 88.5554 40.3787 54.6277 91.0028 59.2399C102.16 60.2322 113.632 62.8687 125.534 67.7971C156.469 80.5364 172.999 104.281 185.84 130.017C189.49 137.345 192.89 144.769 196.322 152.077C209.683 180.486 228.963 231.322 271.837 234.99C312.173 238.446 349.018 223.001 381.167 204.887C392.525 198.489 403.302 191.902 413.299 185.871C428.801 176.492 446.652 167.311 466.44 159.303C497.713 146.638 532.845 137.175 566.978 138.909C571.474 139.136 575.965 139.554 580.448 140.183C626.196 146.59 666.583 173.39 690.774 209.38C699.515 222.35 706.737 236.052 713.672 249.945C725.65 273.936 735.977 299.546 749.839 323.903C769.258 358.029 798.917 382.257 831.574 388.521C854.077 392.895 877.779 388.736 900.37 374.087C915.784 364.085 929.743 352.645 943 339.854C954.466 328.786 965.025 316.652 975.389 303.988C993.134 282.306 1009.6 253.67 1030.64 233.309C1032.8 231.219 1034.99 229.216 1037.25 227.315C1064.35 204.427 1107.53 208.727 1122.96 239.111C1131 254.954 1129.87 274.332 1144.44 287.591C1157.28 299.291 1178.59 306.316 1195.43 310.359C1208.5 313.49 1228.04 318.797 1241.76 313.084C1256.1 307.11 1270.41 281.607 1270.92 269.966" stroke="#566CFF" stroke-width="1.3214" stroke-miterlimit="10" stroke-linecap="round" stroke-linejoin="round"/>
<path d="M-177.167 115.926C-129.928 140.676 -91.9384 131.949 -46.1635 110.065C-2.04863 88.9687 42.5394 52.3757 93.8238 57.3009C105.03 58.3527 116.597 61.249 128.611 66.6123C159.814 80.482 175.893 106.357 188.123 134.103C191.597 142.006 194.8 150.01 197.996 157.892C210.49 188.496 228.792 242.741 272.459 245.664C313.222 248.39 351.693 229.746 384.95 208.784C396.706 201.376 407.801 193.767 418.032 186.849C433.889 176.08 452.066 165.614 471.96 156.696C503.548 142.532 538.799 132.475 573.272 134.341C577.805 134.585 582.332 135.03 586.857 135.707C633.009 142.553 673.455 171.071 696.847 209.108C705.29 222.822 712.154 237.267 718.67 251.901C729.898 277.119 739.526 303.622 753.183 328.487C772.278 363.554 802.565 387.726 835.747 393.216C858.594 397.037 882.697 392.012 905.457 375.999C920.942 365.111 934.815 352.766 947.834 339.173C959.104 327.462 969.493 314.772 979.702 301.625C997.131 279.188 1013.24 249.668 1034.12 228.794C1036.26 226.639 1038.46 224.576 1040.71 222.613C1067.8 198.935 1111.9 203.767 1126.54 235.896C1134.15 252.61 1132.04 272.99 1146.51 286.869C1159.21 299.047 1180.82 306.239 1197.76 310.23C1211.26 313.41 1231.18 318.848 1244.95 312.435C1259.22 305.782 1273.5 278.24 1274.21 265.335" stroke="#556FFF" stroke-width="1.381" stroke-miterlimit="10" stroke-linecap="round" stroke-linejoin="round"/>
<path d="M-178.724 123.433C-129.423 147.631 -91.0516 137.205 -44.3132 112.82C0.613722 89.3858 44.7099 50.1258 96.6545 55.3638C107.919 56.4869 119.561 59.6296 131.709 65.4216C163.192 80.4137 178.818 108.429 190.416 138.192C193.716 146.659 196.711 155.251 199.67 163.706C211.22 196.543 228.624 254.251 273.083 256.329C314.27 258.395 354.404 236.519 388.724 212.679C400.884 204.274 412.298 195.642 422.756 187.815C438.979 175.658 457.472 163.906 477.463 154.076C509.346 138.41 544.736 127.762 579.559 129.753C584.13 130.014 588.702 130.488 593.251 131.199C639.8 138.471 680.324 168.711 702.894 208.811C711.041 223.259 717.568 238.44 723.644 253.822C734.176 280.248 743.118 307.625 756.505 333.027C775.365 368.991 806.18 393.148 839.906 397.879C863.095 401.156 887.593 395.243 910.532 377.868C926.09 366.084 939.85 352.809 952.658 338.439C963.728 326.056 973.969 312.843 984.015 299.211C1001.15 276.044 1016.94 245.668 1037.59 224.226C1039.73 222.009 1041.91 219.882 1044.16 217.868C1071.29 193.45 1116.33 198.737 1130.1 232.627C1137.31 250.198 1134.21 271.569 1148.55 286.091C1161.12 298.73 1183.02 306.077 1200.06 310.056C1214.01 313.266 1234.3 318.863 1248.12 311.742C1262.35 304.404 1276.57 274.831 1277.48 260.669" stroke="#5371FF" stroke-width="1.4405" stroke-miterlimit="10" stroke-linecap="round" stroke-linejoin="round"/>
<path d="M-180.279 130.93C-128.926 154.573 -90.1532 142.452 -42.463 115.573C13.1139 84.257 65.5515 29.0819 134.787 64.2266C175.572 84.9342 189.017 128.78 201.335 169.508C211.941 204.577 228.456 265.599 273.709 266.984C330.067 268.705 386.601 222.173 427.494 188.764C474.091 150.689 538.198 116.61 599.664 126.694C646.61 134.392 687.202 166.363 708.962 208.507C730.276 249.782 739.098 296.52 759.847 337.569C791.262 399.723 858.89 425.771 915.625 379.74C944.729 356.127 966.947 327.292 988.347 296.801C1006.9 270.376 1023.87 235.121 1047.63 213.118C1074.82 187.961 1120.66 193.76 1133.7 229.365C1140.45 247.832 1136.38 270.198 1150.65 285.322C1163.05 298.456 1185.26 305.981 1202.41 309.889C1216.78 313.158 1237.47 318.887 1251.33 311.056C1265.51 303.042 1279.66 271.427 1280.79 255.999" stroke="#5274FF" stroke-width="1.5" stroke-miterlimit="10" stroke-linecap="round" stroke-linejoin="round"/>
</g>
<defs>
<clipPath id="clip0_90_692">
<rect width="1261.96" height="253.054" fill="white" transform="translate(45.5884) rotate(10.3778)"/>
</clipPath>
</defs>
</svg>
