<svg width="24" height="24" viewBox="0 0 24 24" fill="none" xmlns="http://www.w3.org/2000/svg">
<g clip-path="url(#clip0_90_348)">
<path d="M8.40235 12.9778C8.40235 12.2662 8.61335 11.5707 9.00866 10.979C9.40398 10.3874 9.96585 9.92628 10.6232 9.65398C11.2806 9.38168 12.004 9.31044 12.7019 9.44925C13.3997 9.58807 14.0408 9.93071 14.5439 10.4339C15.0471 10.937 15.3897 11.578 15.5285 12.2759C15.6673 12.9738 15.5961 13.6972 15.3238 14.3545C15.0515 15.0119 14.5904 15.5738 13.9988 15.9691C13.4071 16.3644 12.7116 16.5754 12 16.5754C11.0462 16.5744 10.1317 16.195 9.45726 15.5205C8.78281 14.8461 8.40342 13.9316 8.40235 12.9778ZM16.9186 15.424C17.4807 15.3594 18.0197 15.163 18.4917 14.8508C18.9637 14.5387 19.3554 14.1195 19.6349 13.6275C19.9144 13.1355 20.0738 12.5844 20.1002 12.0191C20.1266 11.4539 20.0193 10.8904 19.7869 10.3744C19.5545 9.85846 19.2036 9.40463 18.7628 9.04982C18.3219 8.69501 17.8036 8.44924 17.2499 8.33249C16.6962 8.21574 16.1227 8.2313 15.5762 8.37791C15.0296 8.52453 14.5254 8.79805 14.1045 9.17625C15.1044 9.728 15.8465 10.6516 16.17 11.7469C16.4934 12.8422 16.3721 14.0208 15.8323 15.0273C16.2095 15.1139 16.5744 15.2471 16.9186 15.424ZM9.89555 9.17625C9.47459 8.7991 8.97063 8.52653 8.42458 8.38068C7.87852 8.23482 7.30577 8.21978 6.75282 8.33678C6.19986 8.45378 5.68229 8.69952 5.24212 9.05406C4.80195 9.4086 4.45158 9.86193 4.21947 10.3773C3.98735 10.8926 3.88003 11.4554 3.9062 12.02C3.93238 12.5846 4.09133 13.1351 4.37014 13.6267C4.64895 14.1183 5.03976 14.5373 5.51086 14.8496C5.98195 15.1619 6.52004 15.3587 7.08145 15.424C7.42564 15.2471 7.79053 15.1139 8.16768 15.0273C7.62791 14.0208 7.5066 12.8422 7.83004 11.7469C8.15349 10.6516 8.89563 9.728 9.89555 9.17625ZM19.9303 14.5827L19.8847 14.5751C19.3405 15.2485 18.6083 15.7446 17.7812 16.0005C18.2981 16.4343 18.7135 16.9762 18.9981 17.5881C19.2827 18.1999 19.4295 18.8668 19.4282 19.5416V20.5679C19.4283 21.0137 19.3183 21.4526 19.108 21.8458C19.9892 21.6994 20.889 21.516 21.653 21.3472C22.087 21.2528 22.4755 21.0121 22.7532 20.6654C23.0309 20.3187 23.1809 19.8871 23.1782 19.4429V18.4166C23.1807 17.4958 22.8552 16.6043 22.26 15.9017C21.6649 15.1992 20.8389 14.7316 19.9303 14.5827ZM4.57178 19.5416C4.57052 18.8668 4.71736 18.1999 5.00195 17.5881C5.28654 16.9762 5.70194 16.4343 6.21884 16.0005C5.39174 15.7447 4.65948 15.2485 4.1153 14.5751L4.06971 14.5827C3.16107 14.7316 2.33516 15.1992 1.73999 15.9017C1.14482 16.6043 0.819305 17.4958 0.821783 18.4166V19.4429C0.819075 19.8871 0.969148 20.3187 1.24684 20.6654C1.52454 21.0121 1.91298 21.2528 2.34705 21.3472C3.11097 21.516 4.01084 21.6994 4.89206 21.8458C4.68174 21.4527 4.57173 21.0137 4.57178 20.5679V19.5416ZM15.4303 15.7077L15.3847 15.7001C14.9784 16.2073 14.4632 16.6167 13.8774 16.898C13.2915 17.1794 12.6499 17.3254 12 17.3254C11.3501 17.3254 10.7085 17.1794 10.1226 16.898C9.53678 16.6167 9.02164 16.2073 8.6153 15.7001L8.56971 15.7077C7.66107 15.8566 6.83515 16.3242 6.23998 17.0267C5.64481 17.7293 5.3193 18.6208 5.32178 19.5416V20.5679C5.31908 21.0121 5.46915 21.4437 5.74685 21.7904C6.02454 22.1371 6.41298 22.3778 6.84705 22.4722C8.44153 22.8246 10.6296 23.2449 12 23.2449C13.3704 23.2449 15.5585 22.8246 17.153 22.4722C17.587 22.3778 17.9755 22.1371 18.2532 21.7904C18.5309 21.4437 18.6809 21.0121 18.6782 20.5679V19.5416C18.6807 18.6208 18.3552 17.7293 17.76 17.0267C17.1649 16.3242 16.3389 15.8566 15.4303 15.7077ZM5.40102 8.04792C5.59003 6.75095 6.1575 5.53857 7.03238 4.56262L8.39393 5.92401C8.42875 5.95883 8.47008 5.98645 8.51557 6.00529C8.56107 6.02414 8.60982 6.03384 8.65907 6.03384C8.70831 6.03384 8.75706 6.02414 8.80256 6.00529C8.84805 5.98645 8.88938 5.95883 8.9242 5.92401C8.95902 5.8892 8.98664 5.84786 9.00548 5.80237C9.02433 5.75688 9.03402 5.70812 9.03402 5.65888C9.03402 5.60964 9.02433 5.56088 9.00548 5.51539C8.98664 5.46989 8.95902 5.42856 8.9242 5.39374L7.55958 4.02926C8.68296 3.02022 10.1173 2.4251 11.625 2.34242V4.27496C11.625 4.37442 11.6645 4.4698 11.7348 4.54013C11.8052 4.61045 11.9005 4.64996 12 4.64996C12.0995 4.64996 12.1948 4.61045 12.2652 4.54013C12.3355 4.4698 12.375 4.37442 12.375 4.27496V2.34242C13.8828 2.42509 15.3171 3.02022 16.4405 4.02926L15.0758 5.39374C15.0055 5.46406 14.966 5.55943 14.966 5.65887C14.966 5.75832 15.0055 5.85369 15.0758 5.92401C15.1461 5.99433 15.2415 6.03383 15.341 6.03383C15.4404 6.03383 15.5358 5.99433 15.6061 5.92401L16.9676 4.56262C17.8425 5.53857 18.41 6.75095 18.599 8.04792C19.2693 8.42082 19.8297 8.96336 20.2242 9.62117C20.2396 9.41588 20.25 9.20918 20.25 9C20.25 6.81196 19.3808 4.71354 17.8336 3.16637C16.2865 1.61919 14.188 0.75 12 0.75C9.81197 0.75 7.71355 1.61919 6.16637 3.16637C4.6192 4.71354 3.75 6.81196 3.75 9C3.75 9.20918 3.76042 9.41587 3.7758 9.62116C4.17028 8.96336 4.73075 8.42082 5.40102 8.04792ZM14.4961 6.4671C14.459 6.43472 14.4158 6.40998 14.3691 6.3943C14.3224 6.37863 14.273 6.37232 14.2239 6.37573C14.1747 6.37915 14.1267 6.39223 14.0826 6.41423C14.0385 6.43622 13.9992 6.4667 13.9669 6.50391L12.1131 8.63585C12.4096 8.64465 12.7038 8.69027 12.9891 8.77164L14.5331 6.99609C14.5654 6.95894 14.5901 6.91578 14.6057 6.86908C14.6213 6.82238 14.6276 6.77306 14.6242 6.72394C14.6207 6.67481 14.6077 6.62685 14.5857 6.58278C14.5637 6.53871 14.5333 6.4994 14.4961 6.4671ZM11.6851 8.64608L10.7201 7.94641C10.6396 7.88804 10.5392 7.86404 10.441 7.8797C10.3428 7.89536 10.2548 7.94939 10.1964 8.02991C10.1381 8.11043 10.1141 8.21083 10.1297 8.30904C10.1454 8.40725 10.1994 8.49522 10.2799 8.55359L10.7173 8.87066C11.0278 8.75098 11.3536 8.67538 11.6851 8.64608Z" fill="#7B5EE0"/>
</g>
<defs>
<clipPath id="clip0_90_348">
<rect width="24" height="24" fill="white"/>
</clipPath>
</defs>
</svg>
