<svg width="60" height="24" viewBox="0 0 60 24" fill="none" xmlns="http://www.w3.org/2000/svg">
<rect width="24" height="24" rx="4" fill="#7B5EE0"/>
<g clip-path="url(#clip0_90_772)">
<path fill-rule="evenodd" clip-rule="evenodd" d="M7.04232 8.50065C7.42909 8.50065 7.80002 8.34701 8.07351 8.07351C8.34701 7.80002 8.50065 7.42909 8.50065 7.04232C8.50065 6.65554 8.34701 6.28461 8.07351 6.01112C7.80002 5.73763 7.42909 5.58398 7.04232 5.58398C6.65554 5.58398 6.28461 5.73763 6.01112 6.01112C5.73763 6.28461 5.58398 6.65554 5.58398 7.04232C5.58398 7.42909 5.73763 7.80002 6.01112 8.07351C6.28461 8.34701 6.65554 8.50065 7.04232 8.50065ZM8.50065 18.4173V9.66732H5.58398V18.4173H8.50065ZM9.66732 9.66732H12.2923V10.8025C12.71 10.2536 13.6025 9.66732 15.209 9.66732C17.7348 9.66732 18.4173 12.1873 18.4173 13.7507V18.4173H15.5007V13.7507C15.5007 13.1673 15.209 12.0007 14.0423 12.0007C13.214 12.0007 12.6307 12.5887 12.2923 13.1387V18.4173H9.66732V9.66732Z" fill="white"/>
</g>
<rect x="36" width="24" height="24" rx="4" fill="#7B5EE0"/>
<path d="M51.1748 7H52.8679L49.169 11.2477L53.5204 17.0273H50.113L47.4445 13.5223L44.3905 17.0273H42.6965L46.6527 12.4843L42.4785 7H45.9721L48.3843 10.2041L51.1748 7ZM50.5804 16.0092H51.5188L45.4626 7.96492H44.4557L50.5804 16.0092Z" fill="white"/>
<defs>
<clipPath id="clip0_90_772">
<rect width="14" height="14" fill="white" transform="translate(5 5)"/>
</clipPath>
</defs>
</svg>
