<svg width="40" height="40" viewBox="0 0 40 40" fill="none" xmlns="http://www.w3.org/2000/svg">
<g clip-path="url(#clip0_90_461)">
<path d="M21.25 22.73V17.2698C22.0843 16.9749 22.7874 16.3946 23.2352 15.6314C23.683 14.8682 23.8465 13.9713 23.6969 13.0992C23.5473 12.2271 23.0942 11.4359 22.4177 10.8656C21.7412 10.2952 20.8849 9.98242 20 9.98242C19.1152 9.98242 18.2588 10.2952 17.5823 10.8656C16.9058 11.4359 16.4527 12.2271 16.3031 13.0992C16.1536 13.9713 16.3171 14.8682 16.7649 15.6314C17.2126 16.3946 17.9158 16.9749 18.75 17.2698V22.7306C17.916 23.0255 17.2131 23.6057 16.7655 24.3687C16.3179 25.1317 16.1544 26.0284 16.304 26.9003C16.4536 27.7722 16.9066 28.5631 17.583 29.1333C18.2593 29.7034 19.1154 30.0162 20 30.0162C20.8846 30.0162 21.7408 29.7034 22.4171 29.1333C23.0934 28.5631 23.5464 27.7722 23.696 26.9003C23.8456 26.0284 23.6822 25.1317 23.2346 24.3687C22.787 23.6057 22.084 23.0249 21.25 22.73ZM20 12.4999C20.2473 12.4999 20.4889 12.5732 20.6945 12.7105C20.9001 12.8479 21.0603 13.0431 21.1549 13.2715C21.2495 13.4999 21.2742 13.7513 21.226 13.9937C21.1778 14.2362 21.0587 14.459 20.8839 14.6338C20.7091 14.8086 20.4864 14.9276 20.2439 14.9759C20.0014 15.0241 19.7501 14.9993 19.5217 14.9047C19.2933 14.8101 19.098 14.6499 18.9607 14.4443C18.8233 14.2388 18.75 13.9971 18.75 13.7499C18.7503 13.4185 18.8821 13.1007 19.1165 12.8663C19.3508 12.632 19.6686 12.5002 20 12.4999ZM20 27.4999C19.7528 27.4999 19.5111 27.4266 19.3056 27.2892C19.1 27.1519 18.9398 26.9566 18.8452 26.7282C18.7506 26.4998 18.7258 26.2485 18.774 26.006C18.8223 25.7635 18.9413 25.5408 19.1161 25.366C19.291 25.1912 19.5137 25.0721 19.7562 25.0239C19.9986 24.9757 20.25 25.0004 20.4784 25.095C20.7068 25.1896 20.902 25.3499 21.0394 25.5554C21.1767 25.761 21.25 26.0027 21.25 26.2499C21.2497 26.5813 21.1179 26.8991 20.8836 27.1334C20.6492 27.3678 20.3315 27.4996 20 27.4999Z" fill="#7B5EE0"/>
<path d="M38.0176 21.7676C38.2498 21.5355 38.434 21.2599 38.5596 20.9566C38.6853 20.6533 38.75 20.3283 38.75 20C38.75 19.6717 38.6853 19.3466 38.5596 19.0433C38.434 18.74 38.2498 18.4645 38.0176 18.2324L30.784 10.9991L34.4097 7.4206C34.9445 7.55311 35.508 7.50544 36.0128 7.285C36.5177 7.06456 36.9357 6.68367 37.202 6.20141C37.4684 5.71915 37.5681 5.16248 37.4857 4.61777C37.4034 4.07306 37.1436 3.57074 36.7466 3.18876C36.3496 2.80677 35.8377 2.56647 35.2902 2.50512C34.7427 2.44378 34.1903 2.56482 33.7187 2.84947C33.247 3.13412 32.8825 3.56648 32.6816 4.07945C32.4807 4.59243 32.4548 5.15736 32.6077 5.6866L29.0161 9.23098L21.7676 1.98235C21.5355 1.75017 21.2599 1.56599 20.9566 1.44033C20.6533 1.31468 20.3283 1.25 20 1.25C19.6717 1.25 19.3466 1.31468 19.0433 1.44033C18.74 1.56599 18.4645 1.75017 18.2324 1.98235L10.9991 9.21573L7.42098 5.5896C7.55341 5.05478 7.50563 4.4912 7.28507 3.9863C7.0645 3.4814 6.68347 3.06341 6.20109 2.79717C5.71872 2.53093 5.16196 2.43132 4.61719 2.51381C4.07243 2.59629 3.57011 2.85626 3.18818 3.25337C2.80624 3.65048 2.56604 4.16254 2.50483 4.7101C2.44362 5.25766 2.56483 5.81012 2.84965 6.28177C3.13448 6.75341 3.56699 7.11787 4.0801 7.31861C4.59321 7.51934 5.15822 7.54513 5.68748 7.39198L9.23123 10.9839L1.98235 18.2324C1.75017 18.4645 1.56599 18.74 1.44033 19.0433C1.31468 19.3466 1.25 19.6717 1.25 20C1.25 20.3283 1.31468 20.6533 1.44033 20.9566C1.56599 21.2599 1.75017 21.5355 1.98235 21.7676L9.23098 29.0161L5.68748 32.608C5.15941 32.4559 4.59594 32.4823 4.0844 32.6831C3.57286 32.8838 3.14181 33.2477 2.85808 33.7183C2.57434 34.1889 2.45376 34.7399 2.51502 35.286C2.57628 35.8321 2.81596 36.3427 3.19692 36.7388C3.57787 37.1348 4.07882 37.3941 4.62213 37.4765C5.16543 37.5589 5.72074 37.4598 6.202 37.1945C6.68325 36.9293 7.06356 36.5127 7.28399 36.0093C7.50442 35.5059 7.55266 34.9439 7.42123 34.4104L10.9994 30.7842L18.2326 38.0176C18.4647 38.2498 18.7403 38.434 19.0436 38.5596C19.3469 38.6853 19.6719 38.75 20.0002 38.75C20.3285 38.75 20.6536 38.6853 20.9569 38.5596C21.2602 38.434 21.5358 38.2498 21.7679 38.0176L29.0164 30.769L32.608 34.3134C32.4559 34.8415 32.4824 35.4051 32.6832 35.9167C32.884 36.4283 33.248 36.8594 33.7187 37.1432C34.1895 37.4269 34.7406 37.5474 35.2868 37.4861C35.833 37.4247 36.3437 37.1849 36.7397 36.8038C37.1358 36.4227 37.3951 35.9216 37.4774 35.3782C37.5597 34.8348 37.4604 34.2794 37.195 33.7981C36.9296 33.3168 36.5128 32.9365 36.0093 32.7162C35.5058 32.4958 34.9436 32.4477 34.41 32.5794L30.7842 29.0009L38.0176 21.7676ZM20 36.25L3.74998 20L20 3.74998L36.25 20L20 36.25Z" fill="#7B5EE0"/>
</g>
<defs>
<clipPath id="clip0_90_461">
<rect width="40" height="40" fill="white"/>
</clipPath>
</defs>
</svg>
