<svg width="40" height="40" viewBox="0 0 40 40" fill="none" xmlns="http://www.w3.org/2000/svg">
<g clip-path="url(#clip0_90_447)">
<path d="M13.75 26.25C13.75 26.5815 13.8817 26.8995 14.1161 27.1339C14.3505 27.3683 14.6685 27.5 15 27.5C15.3315 27.5 15.6495 27.3683 15.8839 27.1339C16.1183 26.8995 16.25 26.5815 16.25 26.25C16.25 25.9185 16.1183 25.6005 15.8839 25.3661C15.6495 25.1317 15.3315 25 15 25C14.6685 25 14.3505 25.1317 14.1161 25.3661C13.8817 25.6005 13.75 25.9185 13.75 26.25Z" fill="#7B5EE0"/>
<path d="M28.75 31.25H11.25C9.8715 31.25 8.75 30.1285 8.75 28.75V23.75C8.75 22.3715 9.8715 21.25 11.25 21.25H28.75C30.1285 21.25 31.25 22.3715 31.25 23.75V28.75C31.25 30.1285 30.1285 31.25 28.75 31.25ZM11.25 23.75V28.75H28.75V23.75H11.25Z" fill="#7B5EE0"/>
<path d="M13.75 13.75C13.75 14.0815 13.8817 14.3995 14.1161 14.6339C14.3505 14.8683 14.6685 15 15 15C15.3315 15 15.6495 14.8683 15.8839 14.6339C16.1183 14.3995 16.25 14.0815 16.25 13.75C16.25 13.4185 16.1183 13.1005 15.8839 12.8661C15.6495 12.6317 15.3315 12.5 15 12.5C14.6685 12.5 14.3505 12.6317 14.1161 12.8661C13.8817 13.1005 13.75 13.4185 13.75 13.75Z" fill="#7B5EE0"/>
<path d="M28.75 18.75H11.25C9.8715 18.75 8.75 17.6285 8.75 16.25V11.25C8.75 9.8715 9.8715 8.75 11.25 8.75H28.75C30.1285 8.75 31.25 9.8715 31.25 11.25V16.25C31.25 17.6285 30.1285 18.75 28.75 18.75ZM11.25 11.25V16.25H28.75V11.25H11.25Z" fill="#7B5EE0"/>
<path d="M35 37.5H5C3.62125 37.5 2.5 36.3787 2.5 35V20H5V35H35V5H20V2.5H35C36.3787 2.5 37.5 3.62125 37.5 5V35C37.5 36.3787 36.3787 37.5 35 37.5Z" fill="#7B5EE0"/>
<path d="M15 0V6.25H12.5V0L15 0Z" fill="#7B5EE0"/>
<path d="M4.26791 2.5L8.68733 6.91942L6.91956 8.68718L2.50015 4.26777L4.26791 2.5Z" fill="#7B5EE0"/>
<path d="M0 12.5H6.25V15H0V12.5Z" fill="#7B5EE0"/>
</g>
<defs>
<clipPath id="clip0_90_447">
<rect width="40" height="40" fill="white"/>
</clipPath>
</defs>
</svg>
