<svg width="24" height="24" viewBox="0 0 24 24" fill="none" xmlns="http://www.w3.org/2000/svg">
<path d="M15.2689 2.52783C15.3322 2.50292 15.3967 2.51408 15.4466 2.56396C16.9259 4.0433 19.504 6.65042 20.9456 8.10205L20.9466 8.104C20.9721 8.12964 20.9793 8.15046 20.9818 8.16553C20.9847 8.18358 20.9832 8.20747 20.972 8.23291C20.95 8.28258 20.9032 8.31969 20.8304 8.31982C19.6994 8.31982 18.3817 8.32002 17.4349 8.31006H17.43C16.1829 8.31006 15.1801 7.31085 15.18 6.14014V2.6499C15.18 2.61538 15.1898 2.59366 15.2015 2.57764C15.215 2.5592 15.2375 2.54025 15.2689 2.52783Z" fill="#7B5EE0" stroke="#7B5EE0"/>
<path d="M8.07031 2.5H12.3096C12.5834 2.5 12.8096 2.72614 12.8096 3V5.88965C12.8096 8.53579 14.9642 10.6904 17.6104 10.6904H20.5C20.7739 10.6904 21 10.9166 21 11.1904V16.4297C21 18.092 20.4235 19.3478 19.5273 20.1895C18.6262 21.0356 17.3624 21.5 15.9297 21.5H8.07031C6.63757 21.5 5.37377 21.0356 4.47266 20.1895C3.57648 19.3478 3 18.092 3 16.4297V7.57031C3 5.90797 3.57648 4.65225 4.47266 3.81055C5.37377 2.96436 6.63757 2.5 8.07031 2.5ZM7.5 15.75C6.81386 15.75 6.25 16.3139 6.25 17C6.25 17.6861 6.81386 18.25 7.5 18.25H11.5C12.1861 18.25 12.75 17.6861 12.75 17C12.75 16.3139 12.1861 15.75 11.5 15.75H7.5ZM7.5 11.75C6.81386 11.75 6.25 12.3139 6.25 13C6.25 13.6861 6.81386 14.25 7.5 14.25H13.5C14.1861 14.25 14.75 13.6861 14.75 13C14.75 12.3139 14.1861 11.75 13.5 11.75H7.5Z" fill="#7B5EE0" stroke="#7B5EE0"/>
</svg>
