<svg width="244" height="338" viewBox="0 0 244 338" fill="none" xmlns="http://www.w3.org/2000/svg">
<path d="M204.493 82.2235H105.552C95.0743 82.2235 85.0255 86.3234 77.6164 93.6215C70.2074 100.92 66.0451 110.818 66.0451 121.139V218.598C66.0451 228.919 70.2074 238.817 77.6164 246.115C85.0255 253.413 95.0743 257.513 105.552 257.513H118.59V235.623H108.021C102.782 235.623 97.758 233.573 94.0535 229.924C90.349 226.275 88.2679 221.326 88.2679 216.165V123.571C88.2679 118.411 90.349 113.461 94.0535 109.812C97.758 106.163 102.782 104.113 108.021 104.113H202.024C207.263 104.113 212.287 106.163 215.992 109.812C219.696 113.461 221.777 118.411 221.777 123.571V216.165C221.777 221.326 219.696 226.275 215.992 229.924C212.287 233.573 207.263 235.623 202.024 235.623H152.314V257.513H204.493C214.971 257.513 225.02 253.413 232.429 246.115C239.838 238.817 244 228.919 244 218.598V121.139C244 110.818 239.838 100.92 232.429 93.6215C225.02 86.3234 214.971 82.2235 204.493 82.2235Z" fill="white" fill-opacity="0.16"/>
<path d="M153.188 66.863C171.932 66.863 187.128 51.8952 187.128 33.4315C187.128 14.9678 171.932 0 153.188 0C134.444 0 119.248 14.9678 119.248 33.4315C119.248 51.8952 134.444 66.863 153.188 66.863Z" fill="white" fill-opacity="0.16"/>
<path d="M29.3534 150.894C38.9789 150.894 46.782 143.005 46.782 133.274C46.782 123.543 38.9789 115.655 29.3534 115.655C19.7279 115.655 11.9248 123.543 11.9248 133.274C11.9248 143.005 19.7279 150.894 29.3534 150.894Z" fill="white" fill-opacity="0.16"/>
<path d="M108.699 224.082C114.525 224.082 119.248 219.429 119.248 213.691C119.248 207.952 114.525 203.3 108.699 203.3C102.873 203.3 98.1504 207.952 98.1504 213.691C98.1504 219.429 102.873 224.082 108.699 224.082Z" fill="white" fill-opacity="0.16"/>
<path d="M157.678 223.205C150.702 233.233 152.23 271.595 160.857 284.439C161.092 284.809 161.347 285.166 161.622 285.508C162.879 287.086 164.308 288.543 165.639 290.097C172.541 298.206 175.77 306.656 175.228 314.377C174.587 324.089 167.833 332.368 154.942 336.884C144.909 340.405 135 335.573 125.042 322.68L123.958 321.199L123.366 320.714C111.559 311.584 70.5426 309.958 60.0913 317.096L53.1155 322.438L47.8407 326.468C47.8407 326.468 40.1501 335.913 30.5862 337.783L29.3783 337.977C21.244 338.293 13.2085 333.121 5.14818 322.68C3.16539 320.403 1.6997 317.734 0.849457 314.853C-0.000784111 311.972 -0.215928 308.945 0.218331 305.976C1.00096 302.314 2.695 298.902 5.14818 296.045C9.19066 290.971 11.6309 286.552 15.5994 281.477C24.6704 269.701 24.4731 228.984 15.3529 217.062C13.8739 215.144 12.1732 213.372 10.571 211.526C-5.00728 193.753 0.0950087 178.991 20.6278 166.851C24.3658 164.275 28.8801 163.024 33.4333 163.301C37.9865 163.579 42.3096 165.37 45.6962 168.381C46.7561 169.206 47.7914 170.104 48.7774 171.003C53.5751 175.307 57.0004 180.891 58.6371 187.076C59.3022 189.383 59.4035 191.813 58.9329 194.166C57.0842 203.587 47.5202 211.162 47.5202 211.162L38.0795 223.302C30.9066 233.597 32.7307 273.805 41.9742 285.532C43.9653 287.447 46.0815 289.231 48.309 290.874C50.1824 292.452 52.2282 293.641 54.0522 294.904C66.3768 303.426 107.516 303.839 119.447 294.904C124.056 291.408 128.099 289.077 132.585 285.799C133.546 284.415 134.557 283.007 135.691 281.526C144.786 269.75 144.589 229.032 135.469 217.111C133.99 215.193 132.289 213.42 130.662 211.575C115.108 193.802 120.211 179.04 140.744 166.9C144.482 164.324 148.996 163.072 153.549 163.35C158.102 163.628 162.425 165.418 165.812 168.429C166.872 169.255 167.883 170.153 168.893 171.051C173.646 175.371 177.027 180.954 178.63 187.125C179.295 189.432 179.396 191.861 178.925 194.215C177.077 203.635 167.513 211.211 167.513 211.211L157.678 223.205Z" fill="white" fill-opacity="0.16"/>
</svg>
